<?xml version="1.0" encoding="utf-8"?>
<!-- Generator: Adobe Illustrator 24.0.2, SVG Export Plug-In . SVG Version: 6.00 Build 0)  -->
<svg version="1.1" id="Layer_1" xmlns="http://www.w3.org/2000/svg" xmlns:xlink="http://www.w3.org/1999/xlink" x="0px" y="0px"
	 viewBox="0 0 100 100" style="enable-background:new 0 0 100 100;" xml:space="preserve">
<style type="text/css">
	.st0{fill:none;stroke:#081D22;stroke-width:2.2;stroke-linecap:round;stroke-linejoin:round;stroke-miterlimit:10;}
	.st1{fill:#FFC415;}
</style>
<path class="st0" d="M18.5,18.4c-0.8-2.9,2.4-7.9,6.1-9c-1.1-0.9-1.9-1.5-2.9-2.2c0.1-0.2,0.2-0.7,0.5-1.5c0.9,2.3,4.6,1.9,4.4,5.1
	c1.5,0.2,3.2,0.5,4.9,0.8c0.1-0.2,0.1-0.3,0.2-0.5c-0.7-0.7-1.4-1.4-2.1-2c1.1-0.7,2.5,0,2.7,1.4c0.2,1.7,1,3.1,2.4,4
	c0.9,0.5,2,0.6,3,0.9c0.4,0.1,0.7,0.3,1.2,0.5c0.3-1.2,0.6-2.4,0.9-3.5c0.2-0.1,0.3-0.1,0.5-0.2c0.8,1.3,1.6,2.6,2.3,3.9
	c0.1,0.2,0,0.6-0.1,0.9c-0.1,0.9-0.5,2-0.2,2.6c0.8,1.4,0.3,2.7,0,4c-0.5,2.2-0.2,2.5,2,3.1c1.4,0.3,2.9,0.7,4.2,1.4
	c2.2,1,4.4,0.4,6.5,0.4c2.4,0,4.7-0.3,7.1-0.5c0.4,0,0.8,0.1,1.2,0.3c2.1,1,4.3,0.9,6.4,0.4c2.4-0.5,4.6-0.7,6.7,1.1
	c1,0.9,2.4,1.5,3.6,2.3c-0.1,0.2-0.1,0.5-0.2,0.7c-1,0.2-2.1,0.4-2.9,0.6c-0.5,1.2-0.9,2.3-1.4,3.4c-0.2,0.6-0.7,1.1-0.7,1.6
	c0,1.4-0.3,2.2-2,2.3c-0.5,0-1.6,0.6-1.1,1.8c0.1,0.3-0.1,0.8-0.1,1.2c-0.8-0.3-1.5-0.6-2.3-1c0,0.6-0.1,0.9-0.1,1.4
	c-0.4-0.3-0.7-0.6-1.2-1.1c0,3.3-2.2,1.7-3,1.6c-1,0.9-1.5,1.5-2.1,2.1c-0.2,0.2-0.5,0.4-0.6,0.7c-0.4,2.4-2.2,4.6-0.3,7.3
	c0.8,1.2,0.8,3,1.2,4.4c0.2,0.6,0.5,1.2,0.8,1.8c0.1-0.1,0.3-0.1,0.4-0.2c0-0.9-0.1-1.8-0.1-2.7c0.2-0.1,0.4-0.1,0.6-0.2
	c0.7,1.6,1.4,3.2,2.2,4.9c0.9-0.5,1.7-0.7,2.2-1.3s0.9-1.5,0.9-2.2c-0.2-1.8-0.3-3.3,1.7-4.3c0.4-0.2,0.5-1,0.6-1.5
	c0-0.8-0.1-1.7-0.2-2.9c0.5,0.8,0.8,1.2,1.1,1.7c0.9-0.7,1.4-1.1,1.8-1.5c0.5,0.3,0.9,0.5,1.6,0.8c0.3,1.1,0.8,2.5,1.2,4
	c0.2,0.6,0.2,1.2,0.2,1.8c-0.2,2.3,0,4.4,1.1,6.6c1.2,2.3,1.4,5.2,1.8,7.8c0.4,2.8,0.3,5.7,0.5,8.5c0.1,2,0.4,3.9,0.6,5.9
	c0.1,0.6,0.1,1.1,0.1,1.9c-1-0.8-1.8-1.4-2.5-2c-0.1,0.1-0.2,0.2-0.3,0.3c-0.2-0.5-0.5-1.1-0.7-1.6c-2.7,0.6-2.7,2.9-3.1,4.7
	c0.5,1.4,1,2.8,1.6,4.2c-0.2,0.1-0.3,0.1-0.5,0.2c-0.6-2.5-2.8-4.1-3.3-6.8c-0.3-1.6-0.3-3.2-0.5-4.8c0,0.3,0.1,0.8-0.1,1
	c-0.3,0.4-0.7,0.8-1.1,1.2c-0.1-0.5-0.5-1-0.4-1.4c1.2-4.8-0.6-9.1-2.3-13.4c-0.7-1.7-2.4-3.1-3.8-4.5c-0.3-0.3-1.2,0-1.8,0.2
	c-0.3,0.1-0.8,0.8-0.8,1c0.6,1.8-0.8,2.4-1.6,3.3c-1.2-0.9-2.3-1.5-3.2-2.4c-1-1-1.6-2.3-2.5-3.4c-1.4-1.9-1.8-3.9-1.3-6.3
	c0.3-1.2-0.7-2.6-1.1-4.3c-0.3,2.1-1.5,1.9-2.7,1.3c-1.5-0.7-3-1.6-4.5-2.3c-0.6-0.3-1.2-0.3-2-0.5c1.7,3,4.7,3.3,7.1,4.1
	c0.7-0.1,1.4-0.3,2-0.4c0.1,0.2,0.1,0.4,0.2,0.6c-0.4,0.1-0.9,0.3-1.5,0.4c0.7,0.5,1.2,0.9,2,1.5c-2,2.2-0.7,3.9,0.4,6.2
	c0.9,2,1.6,4.1,3,6c0.9,1.2-0.8,5.5-2.3,6.3c-0.3,0.1-0.7,0-1,0c-0.5,0-0.9,0-1.5,0c-0.2-0.6,0.6-2.6,1.5-3.1
	c0.3-0.1,0.7-0.4,0.7-0.7c0.1-1.1,0.3-2.3,0.2-3.4c0-0.5-0.7-0.9-0.9-1.2c0,1.1,0.3,2.3,0,3.1c-0.6,1.5-1.3,3.4-2.5,4
	c-1.7,0.9-2.1,2.1-2.5,3.6c-0.1,0.3-0.8,0.6-1.3,0.6c-0.3,0-0.6-0.5-0.8-0.8c-0.1-0.1,0-0.3-0.1-0.4c-1-0.5-1-0.5-0.2-1.6
	c-1.1,0.1-1.7-0.1-1-1.4c-0.3,0.5-0.6,1.1-1,1.9c-0.2-2.5-1.9-4.8,0.6-7.4c-1.9,1.2-2.1,2.2-1.8,3.7s0.4,3.1,0,4.6
	c-0.1,0.5-1.8,0.7-2.8,1c0,0,0.2,0.4,0.4,0.8c-0.5,0.2-1.1,0.3-1.9,0.6c0.2-1.7,0.4-3.5,0.6-5.5c-2.5,1-0.9,4.1-2.9,6.1
	C36.1,79.8,36,78.6,36,77c-0.6,2-1.1,3.6-1.6,5.5c-0.8-1.1,0.2-2.9-1.8-2.7c0,0-0.1-0.5-0.2-0.8c-0.6-2.3-0.3-4.6-1.4-7
	c-1-2.1-0.4-4.9-0.5-7.4c0-0.3-0.1-0.6-0.2-0.8c-1.4-2.3-1.4-2.9,0.6-5.2c-0.9-0.2-1.7-0.5-2.4-0.5c-1.2,0-1.5-0.3-1.1-1.4
	c0.3-0.7,0.5-1.4,0.7-2c-1.6-1.2-3.4-2.2-2.8-4.6c0.1-0.6,0.7-1.2,1.2-1.6c0.7-0.7,1.5-1.3,0.9-2.5c-0.3-0.6-0.3-1.5-0.2-2.3
	c0.1-1.7-0.6-2.5-2.2-2.8c-1.1-0.2-2.1-0.9-3.2-1.3c-0.7-0.2-1.5-0.3-2.5-0.6c-0.2-0.7,0.6-2.4-1.3-2.7c0.1-0.6,0.1-1.3,0.3-1.8
	c0.4-0.8,0.9-1.6,1.5-2.6c0.4,0.2,1,0.6,2,1.1c0.6-1.6,1.3-3.3,1.9-4.9c2,0,4.1,0,6.3,0c0.3-0.5,0.7-1.1,1.2-1.9
	c-2.5,0.2-2.2-1.9-2.9-3.4c-2.5,0.9-4.1,0.3-5.4-2.2C22.1,19.4,20.7,17.6,18.5,18.4L18.5,18.4z"/>
<circle class="st1" cx="25.4" cy="16.1" r="1.8"/>
<circle class="st1" cx="30.5" cy="20.6" r="1.8"/>
<circle class="st1" cx="32.8" cy="17.2" r="1.6"/>
<circle class="st1" cx="38.2" cy="20.6" r="1.8"/>
<circle class="st1" cx="26.6" cy="34.1" r="1.8"/>
<circle class="st1" cx="41.3" cy="30.4" r="1.8"/>
<circle class="st1" cx="43.1" cy="35.8" r="1.8"/>
<circle class="st1" cx="54.4" cy="32.3" r="1.8"/>
<circle class="st1" cx="62.8" cy="34.7" r="1.8"/>
<circle class="st1" cx="57.7" cy="47.1" r="1.8"/>
<circle class="st1" cx="61.3" cy="56.9" r="1.8"/>
<circle class="st1" cx="56.2" cy="53" r="1.8"/>
<circle class="st1" cx="74.9" cy="57.8" r="1.8"/>
<circle class="st1" cx="77.3" cy="67.7" r="1.8"/>
<circle class="st1" cx="78" cy="76.9" r="1.8"/>
<circle class="st1" cx="69.4" cy="67.2" r="1.8"/>
<circle class="st1" cx="73.7" cy="72.7" r="1.8"/>
<circle class="st1" cx="75.5" cy="83.3" r="1.8"/>
<circle class="st1" cx="59.5" cy="63.3" r="1.8"/>
<circle class="st1" cx="71.2" cy="32.9" r="1.8"/>
<circle class="st1" cx="35.1" cy="26.7" r="1.8"/>
<circle class="st1" cx="33.3" cy="32.9" r="1.8"/>
<circle class="st1" cx="31.5" cy="41" r="1.8"/>
<circle class="st1" cx="38.2" cy="38.4" r="1.8"/>
<circle class="st1" cx="48.5" cy="42.3" r="1.8"/>
<circle class="st1" cx="46.6" cy="38.1" r="1.5"/>
<circle class="st1" cx="50.9" cy="46.6" r="1.5"/>
<circle class="st1" cx="41.8" cy="69" r="1.8"/>
<circle class="st1" cx="46.7" cy="51.2" r="1.8"/>
<circle class="st1" cx="38.2" cy="53.5" r="1.8"/>
<circle class="st1" cx="56.2" cy="40.2" r="1.8"/>
<circle class="st1" cx="35.1" cy="67.2" r="1.8"/>
<circle class="st1" cx="44.2" cy="58.7" r="1.8"/>
<circle class="st1" cx="37.2" cy="60.7" r="1.8"/>
<circle class="st1" cx="31.3" cy="53" r="1.3"/>
<circle class="st1" cx="62.8" cy="41" r="1.3"/>
<circle class="st1" cx="68.1" cy="38.4" r="1.3"/>
<circle class="st1" cx="51.2" cy="37.1" r="1.3"/>
<circle class="st1" cx="42.4" cy="42" r="1.3"/>
<circle class="st1" cx="41.1" cy="56.9" r="1.3"/>
<circle class="st1" cx="33.3" cy="63.3" r="1.3"/>
<circle class="st1" cx="38.2" cy="46" r="1.3"/>
<circle class="st1" cx="33.6" cy="37.7" r="1.3"/>
<circle class="st1" cx="38.2" cy="33.5" r="1.3"/>
<circle class="st1" cx="41.1" cy="63.8" r="1.3"/>
<circle class="st1" cx="33.6" cy="57.1" r="1.3"/>
<circle class="st1" cx="48.1" cy="61.4" r="1.3"/>
<circle class="st1" cx="35.4" cy="72.2" r="1.3"/>
<circle class="st1" cx="49.4" cy="71.4" r="1.3"/>
<circle class="st1" cx="28.4" cy="37.7" r="1.3"/>
<circle class="st1" cx="29.7" cy="14.3" r="1.3"/>
<circle class="st1" cx="34.3" cy="22.4" r="1.3"/>
<circle class="st1" cx="46.3" cy="31.1" r="1.3"/>
<circle class="st1" cx="35.7" cy="42.4" r="1.3"/>
<circle class="st1" cx="28.7" cy="50" r="1.3"/>
<circle class="st1" cx="56.8" cy="35.8" r="1.3"/>
<circle class="st1" cx="59.5" cy="31.1" r="1.3"/>
<circle class="st1" cx="73.3" cy="67.2" r="1.3"/>
<circle class="st1" cx="77.3" cy="72.3" r="1.3"/>
<circle class="st1" cx="73.7" cy="78" r="1.3"/>
<circle class="st1" cx="73.7" cy="62.7" r="1.3"/>
<circle class="st1" cx="33.6" cy="47.1" r="1.8"/>
<circle class="st1" cx="48.1" cy="65.4" r="1.8"/>
<circle class="st1" cx="43.1" cy="46.6" r="1.8"/>
</svg>
