<?xml version="1.0" encoding="utf-8"?>
<!-- Generator: Adobe Illustrator 24.0.2, SVG Export Plug-In . SVG Version: 6.00 Build 0)  -->
<svg version="1.1" id="Layer_1" xmlns="http://www.w3.org/2000/svg" xmlns:xlink="http://www.w3.org/1999/xlink" x="0px" y="0px"
	 viewBox="0 0 304 238.9" style="enable-background:new 0 0 304 238.9;" xml:space="preserve">
<style type="text/css">
	.st0{opacity:0.51;}
	.st1{fill:#FFC415;}
	.st2{fill:#FFFFFF;stroke:#081D22;stroke-width:2.49;stroke-linecap:round;stroke-linejoin:round;}
	.st3{fill:#E3EEF9;}
	.st4{fill:none;stroke:#2C537D;stroke-width:2.58;stroke-linecap:round;stroke-linejoin:round;}
	.st5{fill:none;stroke:#081D22;stroke-width:2.49;stroke-linecap:round;stroke-linejoin:round;}
	.st6{fill:none;stroke:#F79720;stroke-width:2.58;stroke-linecap:round;stroke-linejoin:round;}
	.st7{fill:#FFFFFF;stroke:#FFC415;stroke-width:2.58;stroke-linecap:round;stroke-linejoin:round;}
	.st8{fill:#F79720;}
	.st9{fill:none;stroke:#FFC415;stroke-width:2.49;stroke-linecap:round;stroke-linejoin:round;}
	.st10{fill:#FFFFFF;stroke:#081D22;stroke-width:2.58;stroke-linecap:round;stroke-linejoin:round;}
	.st11{fill:#FFFFFF;stroke:#FAAE1B;stroke-width:2.58;stroke-linecap:round;stroke-linejoin:round;}
	.st12{fill:#FFFFFF;}
	.st13{fill:none;stroke:#FAAE1B;stroke-width:2.49;stroke-linecap:round;stroke-linejoin:round;}
	.st14{fill:none;stroke:#F79720;stroke-width:2.59;stroke-linecap:round;stroke-linejoin:round;}
	.st15{fill:#C5DFEF;}
	.st16{opacity:0.7;}
	.st17{fill:#FFA400;}
	.st18{fill:#FAAE1B;}
</style>
<title>Clock Graphic</title>
<g class="st0">
	<path class="st1" d="M295.1,134.3l-99.9,99.9c-6.2,6.2-16.3,6.2-22.6,0l0,0c-6.2-6.2-6.2-16.3,0-22.6l99.9-99.9
		c6.2-6.2,16.3-6.2,22.6,0l0,0C301.3,118,301.3,128.1,295.1,134.3z"/>
	<path class="st1" d="M42.7,138.1l-15.5,15.5c-6.2,6.2-16.3,6.2-22.6,0l0,0c-6.2-6.2-6.2-16.3,0-22.6l15.5-15.5
		c6.2-6.2,16.3-6.2,22.6,0l0,0C48.9,121.8,48.9,131.9,42.7,138.1z"/>
	<path class="st1" d="M179.7,160.3l45.7-45.7c-5.7,6.7-5,16.8,1.7,22.6c6,5.1,14.8,5.1,20.8,0l-45.7,45.7c5.8-6.7,5.1-16.8-1.6-22.6
		C194.6,155.1,185.7,155.1,179.7,160.3L179.7,160.3z"/>
	<path class="st1" d="M160.2,90.8L203,48c-5.8,6.7-5,16.8,1.7,22.6c6,5.2,14.9,5.2,20.9,0l-42.8,42.8c5.7-6.7,5-16.8-1.7-22.6
		C175,85.6,166.2,85.6,160.2,90.8L160.2,90.8z"/>
	<path class="st1" d="M292.4,47.8L167.6,172.7c-6.2,6.2-16.3,6.2-22.6,0l0,0c-6.2-6.2-6.2-16.3,0-22.6L269.9,25.3
		c6.2-6.2,16.3-6.2,22.6,0l0,0C298.7,31.5,298.7,41.6,292.4,47.8z"/>
	<path class="st1" d="M214.9,36.6l-170,170c-6.2,6.2-16.3,6.2-22.6,0l0,0c-6.2-6.2-6.2-16.3,0-22.6l170-170c6.2-6.2,16.3-6.2,22.6,0
		l0,0C221.1,20.2,221.1,30.3,214.9,36.6z"/>
	<path class="st1" d="M138,31.6L74.9,94.6c-6.2,6.2-16.3,6.2-22.6,0l0,0c-6.2-6.2-6.2-16.3,0-22.6L115.4,9c6.2-6.2,16.3-6.2,22.6,0
		l0,0C144.2,15.2,144.2,25.3,138,31.6z"/>
	<path class="st1" d="M131.3,207.9l-0.4,0.4c-6.2,6.2-16.3,6.2-22.6,0l0,0c-6.2-6.2-6.2-16.3,0-22.6l0.4-0.4
		c6.2-6.2,16.3-6.2,22.6,0l0,0C137.5,191.6,137.5,201.7,131.3,207.9z"/>
</g>
<path class="st2" d="M155.5,143.9c2.2,2.2,2.2,5.8,0,8c0,0,0,0,0,0l0,0c-2.2,2.2-5.8,2.2-8,0c0,0,0,0,0,0L57,61.7
	c-2.2-2.2-2.2-5.8,0-8c0,0,0,0,0,0l0,0c2.2-2.2,5.8-2.2,8,0c0,0,0,0,0,0L155.5,143.9z"/>
<path class="st3" d="M65.6,113.3c4.3-4.3,8.6-8.6,12.9-12.9c8.6-8.6,17.2-17.2,25.8-25.8c4.9-4.9,9.9-9.8,14.8-14.6
	c-14.7-16.1-39.7-17.3-55.8-2.6s-17.3,39.7-2.6,55.8c0.8,0.9,1.6,1.7,2.5,2.5C64.1,114.9,64.9,114.1,65.6,113.3z"/>
<path class="st2" d="M194.6,165h-86.4l-20.1,62c-1,2.9,0.6,6.1,3.6,7c1.7,0.6,3.6,0.3,5-0.8l54.8-39.8l54.8,39.8
	c2.5,1.8,6,1.3,7.8-1.2c1-1.4,1.3-3.3,0.8-5L194.6,165z"/>
<rect x="147.7" y="52.1" class="st4" width="7.3" height="111.5"/>
<path class="st3" d="M141,50.3h20.9c1.7,0,3.2,1.4,3.2,3.2v5.1c0,1.7-1.4,3.2-3.2,3.2H141c-1.7,0-3.2-1.4-3.2-3.2v-5.1
	C137.8,51.7,139.2,50.3,141,50.3z"/>
<path class="st5" d="M141,50.3h20.9c1.7,0,3.2,1.4,3.2,3.2v5.1c0,1.7-1.4,3.2-3.2,3.2H141c-1.7,0-3.2-1.4-3.2-3.2v-5.1
	C137.8,51.7,139.2,50.3,141,50.3z"/>
<path class="st2" d="M155.4,151.9c-2.2,2.2-5.8,2.2-8,0c0,0,0,0,0,0l0,0c-2.2-2.2-2.2-5.8,0-8c0,0,0,0,0,0l90.2-90.5
	c2.2-2.2,5.8-2.2,8,0c0,0,0,0,0,0l0,0c2.2,2.2,2.2,5.8,0,8c0,0,0,0,0,0L155.4,151.9z"/>
<circle class="st3" cx="151.4" cy="148.8" r="78.7"/>
<circle class="st6" cx="151.4" cy="148.8" r="78.7"/>
<circle class="st7" cx="151.4" cy="148.8" r="57.5"/>
<path class="st8" d="M174.1,167.1l-18.2-18.9c-1.3,1.3-2.6,2.6-3.8,3.9l18.6,18.5c1,0.9,2.6,0.9,3.5-0.2c0,0,0.1-0.1,0.1-0.1l0,0
	C175,169.4,175,168,174.1,167.1z"/>
<path class="st8" d="M183.4,115.9L183.4,115.9c-0.9-1-2.5-1.1-3.6-0.2c0,0-0.1,0.1-0.1,0.1l-28.7,28c1.2,1.6,2.4,3,3.6,4.6
	l28.7-28.9C184.4,118.5,184.4,116.9,183.4,115.9z"/>
<line class="st9" x1="151.4" y1="148.8" x2="110" y2="148.6"/>
<circle class="st10" cx="151.4" cy="148.8" r="7"/>
<path class="st11" d="M65.6,113.3c4.3-4.3,8.6-8.6,12.9-12.9c8.6-8.6,17.2-17.2,25.8-25.8c4.9-4.9,9.9-9.8,14.8-14.6
	c-14.7-16.1-39.7-17.3-55.8-2.6s-17.3,39.7-2.6,55.8c0.8,0.9,1.6,1.7,2.5,2.5C64.1,114.9,64.9,114.1,65.6,113.3z"/>
<path class="st12" d="M186,62.1c4.3,4.3,8.6,8.6,12.9,12.9c8.6,8.6,17.2,17.2,25.8,25.8c4.9,4.9,9.8,9.9,14.6,14.8
	C255.5,101,256.7,76,242,59.9c-14.7-16.1-39.7-17.3-55.8-2.6c-0.9,0.8-1.7,1.6-2.5,2.5C184.4,60.5,185.3,61.3,186,62.1z"/>
<path class="st13" d="M186,62.1c4.3,4.3,8.6,8.6,12.9,12.9c8.6,8.6,17.2,17.2,25.8,25.8c4.9,4.9,9.8,9.9,14.6,14.8
	C255.5,101,256.7,76,242,59.9c-14.7-16.1-39.7-17.3-55.8-2.6c-0.9,0.8-1.7,1.6-2.5,2.5C184.4,60.5,185.3,61.3,186,62.1z"/>
<line class="st14" x1="49.5" y1="234.6" x2="245.8" y2="234.6"/>
<path class="st1" d="M103.8,7.1c-1.9,0-3.5-1.6-3.5-3.5s1.6-3.5,3.5-3.5c1.9,0,3.5,1.6,3.5,3.5c0,0,0,0,0,0
	C107.4,5.5,105.8,7.1,103.8,7.1z M103.8,2.1c-0.8,0-1.5,0.6-1.5,1.5s0.6,1.5,1.5,1.5c0.8,0,1.5-0.6,1.5-1.5c0,0,0-0.1,0-0.1
	C105.2,2.7,104.6,2.1,103.8,2.1z"/>
<path class="st15" d="M33.1,86c-1.7,0-3.1-1.4-3.1-3.1s1.4-3.1,3.1-3.1c1.7,0,3.1,1.4,3.1,3.1l0,0C36.2,84.6,34.8,86,33.1,86z
	 M33.1,81.9c-0.6,0-1,0.5-1,1s0.5,1,1,1s1-0.5,1-1S33.7,81.9,33.1,81.9z"/>
<g class="st16">
	<path class="st17" d="M296.3,80.5c-0.1,0-0.2,0-0.3-0.1c-0.5-0.1-0.8-0.7-0.7-1.2c0,0,0-0.1,0-0.1l3.5-10.1
		c0.2-0.5,0.8-0.8,1.3-0.6c0.5,0.2,0.8,0.8,0.6,1.3l0,0l-3.5,10.1C297.1,80.2,296.7,80.4,296.3,80.5z"/>
	<path class="st17" d="M303,77.1c-0.1,0-0.2,0-0.3-0.1l-10.1-3.4c-0.5-0.2-0.8-0.8-0.6-1.3c0.2-0.5,0.8-0.8,1.3-0.6l10.1,3.4
		c0.6,0.1,0.9,0.6,0.8,1.2C304.1,76.9,303.6,77.3,303,77.1L303,77.1z"/>
</g>
<path class="st8" d="M130.1,44.2c-1.8,0-3.2-1.5-3.1-3.2s1.5-3.2,3.2-3.1c1.7,0,3.1,1.4,3.1,3.2C133.3,42.7,131.9,44.2,130.1,44.2
	C130.1,44.2,130.1,44.2,130.1,44.2z M130.1,39.9c-0.6,0-1.1,0.5-1.1,1.1c0,0.6,0.5,1.1,1.1,1.1c0.6,0,1.1-0.5,1.1-1.1c0,0,0,0,0,0
	C131.2,40.4,130.7,39.9,130.1,39.9z"/>
<path class="st8" d="M281,123.1c-1.8,0-3.2-1.4-3.2-3.2c0-1.8,1.4-3.2,3.2-3.2s3.2,1.4,3.2,3.2c0,0,0,0,0,0
	C284.2,121.7,282.8,123.1,281,123.1z M281,118.8c-0.6,0-1.1,0.5-1.1,1.1s0.5,1.1,1.1,1.1c0.6,0,1.1-0.5,1.1-1.1
	C282.2,119.3,281.7,118.8,281,118.8L281,118.8z"/>
<path class="st17" d="M37.4,137.2c-1.8,0-3.2-1.4-3.2-3.2c0-1.8,1.4-3.2,3.2-3.2c1.8,0,3.2,1.4,3.2,3.2c0,0,0,0,0,0
	C40.6,135.8,39.2,137.2,37.4,137.2z M37.4,132.9c-0.6,0-1.1,0.5-1.1,1.1c0,0.6,0.5,1.1,1.1,1.1c0.6,0,1.1-0.5,1.1-1.1
	C38.6,133.5,38.1,132.9,37.4,132.9C37.4,132.9,37.4,132.9,37.4,132.9z"/>
<path class="st18" d="M254.7,31.5c-1.8,0-3.2-1.4-3.2-3.2c0-1.8,1.4-3.2,3.2-3.2c1.8,0,3.2,1.4,3.2,3.2c0,0,0,0,0,0
	C257.9,30.1,256.5,31.5,254.7,31.5z M254.7,27.2c-0.6,0-1.1,0.5-1.1,1.1s0.5,1.1,1.1,1.1s1.1-0.5,1.1-1.1
	C255.9,27.7,255.4,27.2,254.7,27.2L254.7,27.2z"/>
<path class="st17" d="M170,12.1L170,12.1c-0.3,0-0.6-0.1-0.8-0.3l-3.8-4.4c-0.4-0.4-0.3-1,0.1-1.4c0,0,0,0,0,0l4.4-3.8
	c0.4-0.4,1-0.3,1.4,0.1c0,0,0,0,0,0l3.8,4.4c0.2,0.2,0.3,0.5,0.2,0.7c0,0.3-0.1,0.5-0.3,0.7l-4.4,3.8C170.5,12,170.3,12.1,170,12.1z
	 M167.7,6.8l2.5,2.8l2.8-2.5l-2.5-2.8L167.7,6.8z"/>
<g>
	<path class="st8" d="M52.8,16.4c-0.2,0-0.5-0.1-0.7-0.3c-0.4-0.4-0.5-1-0.1-1.4c0,0,0,0,0,0l7.1-8c0.4-0.4,1-0.5,1.4-0.1
		s0.5,1,0.1,1.4l0,0l-7.1,8C53.4,16.3,53.1,16.4,52.8,16.4z"/>
	<path class="st8" d="M60.4,16c-0.2,0-0.5-0.1-0.7-0.3l-8-7.1c-0.4-0.4-0.5-1-0.1-1.4c0,0,0,0,0,0c0.4-0.4,1-0.5,1.4-0.1
		c0,0,0,0,0,0l8,7.1c0.4,0.4,0.5,1,0.1,1.4c0,0,0,0,0,0C60.9,15.9,60.7,16,60.4,16z"/>
</g>
</svg>
