<?xml version="1.0" encoding="utf-8"?>
<!-- Generator: Adobe Illustrator 24.0.2, SVG Export Plug-In . SVG Version: 6.00 Build 0)  -->
<svg version="1.1" id="Layer_1" xmlns="http://www.w3.org/2000/svg" xmlns:xlink="http://www.w3.org/1999/xlink" x="0px" y="0px"
	 viewBox="0 0 100 100" style="enable-background:new 0 0 100 100;" xml:space="preserve">
<style type="text/css">
	.st0{fill:#FFC415;}
	.st1{fill:#FFFFFF;}
	.st2{fill:none;stroke:#939598;stroke-width:0.8449;stroke-miterlimit:10;}
	.st3{fill:none;stroke:#081D22;stroke-width:1.9336;stroke-linecap:round;stroke-linejoin:round;stroke-miterlimit:10;}
	.st4{fill:#FFFFFF;stroke:#081D22;stroke-width:1.9336;stroke-linecap:round;stroke-linejoin:round;stroke-miterlimit:10;}
	.st5{fill:#FFFFFF;stroke:#081D22;stroke-width:1.7444;stroke-linecap:round;stroke-linejoin:round;stroke-miterlimit:10;}
	.st6{fill:#01834D;}
</style>
<path class="st0" d="M14,33.2h29.2v30.4H14V33.2z"/>
<path class="st1" d="M29.6,36.8h10.1v6H29.6V36.8z M10.8,61.3c0.2-0.1,1.5-2.8,5.4-4.5s11-1.7,14.2-1.9c3.1-0.2,5.9,0.1,6.5,0.7
	c0.7,0.6,2.4,2.2,1.7,3.5c0,0-0.6,1.6-1.4,2.2c-0.8,0.5-1.5,1.3-1.5,1.3s0.8,0.5,2.2,0.1c1.3-0.4,11.3-5.2,12.6-5.4
	c1.4-0.1,3.3-0.2,3.8,1.9s0,2.8-1.1,3.9c-1.1,1.1-17.5,8.3-19.3,8.5C32,72,11.1,70.1,11.1,70.1s-0.4,0-0.3-0.7
	C10.8,68.6,10.8,61.3,10.8,61.3z"/>
<path class="st2" d="M35.5,62.7"/>
<path class="st3" d="M10.7,71.2c0,0,0.3-12.4,0-12.4s-6.3,0.5-6.3,0.5v11.4L10.7,71.2z"/>
<path id="XMLID_3_" class="st4" d="M10.8,61.1c0,0,2.9-4.5,9.4-5.5s14.3-0.8,15.8-0.4c1.6,0.4,2.6,2.2,2.6,3.5c0,2-3.3,3.8-3.3,3.8"
	/>
<path class="st4" d="M25.8,61.7c0,0,9,1.2,11.5,1.1s10.8-4.7,12.3-5.2s3.6-1,4.7,1.7s-0.6,3.7-2.1,4.6c-1.5,0.8-14.5,6.6-16.4,7.3
	c-1.9,0.7-3.3,1-7.9,0.7s-17.2-1.8-17.2-1.8"/>
<path class="st0" d="M60.1,23.2h19.5v35.7H60.1V23.2z"/>
<path class="st1" d="M73.5,55.8c0-0.1,0-0.1,0-0.2c0-1.5,1.2-2.6,2.6-2.6c0.1,0,0.2,0,0.2,0V29.6c-0.1,0-0.2,0-0.2,0
	c-1.5,0-2.6-1.2-2.6-2.6c0-0.1,0-0.1,0-0.2h-7.1c0,0.1,0,0.1,0,0.2c0,1.5-1.2,2.6-2.6,2.6c-0.1,0-0.2,0-0.2,0V53c0.1,0,0.2,0,0.2,0
	c1.5,0,2.6,1.2,2.6,2.6c0,0.1,0,0.1,0,0.2H73.5z M90.7,51.8h-1.6c0,0-5.1,4.5-9.5,4.5V40c0,0-2.5-2.1-3.5-3.9c-1-1.8-1-1.6-1-1.6
	s-4.7,0-5,0s-1.7-0.9-1.5-2.6s0.8-2,1.7-2.1c0.9,0,7.9,0.3,8.9,0.2c1.1-0.1,5,2.2,5.9,2.9s3.7,2.7,4.2,2.7s1.1,0,1.1,0"/>
<circle class="st0" cx="70.1" cy="42.5" r="3.9"/>
<path class="st5" d="M90.8,53.5c0,0-0.3-19.5,0-19.5s6.3,0.6,6.3,0.6v18.1C97.1,52.7,90.8,53.5,90.8,53.5z M90.7,35.7h-1.5
	c0,0-7.6-5.2-9.5-5.6s-7.2-0.3-8.9-0.3c-1.7,0-2.3,1.2-2.3,2.6c0,1.4,1.2,2,1.7,2s5.1,0,5.1,0s1.9,4.6,4.8,5.8"/>
<path class="st6" d="M62.5,34.9h-4.8c-1.1,0-1.9-0.9-1.9-1.9c0-1.1,0.9-1.9,1.9-1.9h4.8c1.1,0,1.9,0.9,1.9,1.9S63.5,34.9,62.5,34.9z
	 M61.6,39.8H56c-1.1,0-1.9-0.9-1.9-1.9c0-1.1,0.9-1.9,1.9-1.9h5.5c1.1,0,1.9,0.9,1.9,1.9C63.5,38.9,62.6,39.8,61.6,39.8z M61.6,44.6
	H56c-1.1,0-1.9-0.9-1.9-1.9c0-1.1,0.9-1.9,1.9-1.9h5.5c1.1,0,1.9,0.9,1.9,1.9C63.5,43.7,62.6,44.6,61.6,44.6z M61.6,49.5h-3.7
	c-1.1,0-1.9-0.9-1.9-1.9c0-1.1,0.9-1.9,1.9-1.9h3.7c1.1,0,1.9,0.9,1.9,1.9S62.6,49.5,61.6,49.5z"/>
<path class="st5" d="M62.5,34.9h-4.8c-1.1,0-1.9-0.9-1.9-1.9c0-1.1,0.9-1.9,1.9-1.9h4.8c1.1,0,1.9,0.9,1.9,1.9S63.5,34.9,62.5,34.9z
	 M61.6,39.8H56c-1.1,0-1.9-0.9-1.9-1.9c0-1.1,0.9-1.9,1.9-1.9h5.5c1.1,0,1.9,0.9,1.9,1.9C63.5,38.9,62.6,39.8,61.6,39.8z M61.6,44.6
	H56c-1.1,0-1.9-0.9-1.9-1.9c0-1.1,0.9-1.9,1.9-1.9h5.5c1.1,0,1.9,0.9,1.9,1.9C63.5,43.7,62.6,44.6,61.6,44.6z M61.6,49.5h-3.7
	c-1.1,0-1.9-0.9-1.9-1.9c0-1.1,0.9-1.9,1.9-1.9h3.7c1.1,0,1.9,0.9,1.9,1.9S62.6,49.5,61.6,49.5z M90.7,51.8h-1.6c0,0-4.6,4.5-9,4.5"
	/>
</svg>
