<?xml version="1.0" encoding="utf-8"?>
<!-- Generator: Adobe Illustrator 24.0.2, SVG Export Plug-In . SVG Version: 6.00 Build 0)  -->
<svg version="1.1" id="Layer_1" xmlns="http://www.w3.org/2000/svg" xmlns:xlink="http://www.w3.org/1999/xlink" x="0px" y="0px"
	 viewBox="0 0 226 153" style="enable-background:new 0 0 226 153;" xml:space="preserve">
<style type="text/css">
	.st0{opacity:0.28;}
	.st1{fill:#FFC415;}
	.st2{fill:#FFFFFF;}
	.st3{fill:#081D22;}
	.st4{fill:#E6ECF7;}
	.st5{fill:#FFA400;}
	.st6{opacity:0.32;fill:#FFC415;}
	.st7{fill:#F79720;}
	.st8{opacity:0.32;}
	.st9{fill:#CCCBCB;}
	.st10{fill:#F5A117;}
	.st11{fill:#E5EBF7;}
	.st12{fill:#C5DFEF;}
	.st13{fill:#16547E;}
	.st14{fill:#FCB315;}
	.st15{font-family:'OmicronLight';}
	.st16{font-size:7.4377px;}
	.st17{fill:#0D4154;}
	.st18{fill:#FCC215;}
	.st19{fill:#F1D7AA;}
	.st20{fill:#FAAE1B;}
	.st21{font-family:'Breymont-Light';}
	.st22{font-size:0.6064px;}
</style>
<title>Graphic 3@2x</title>
<desc>Created with Sketch.</desc>
<g id="Group" transform="translate(16.800000, 5.400000)" class="st0">
	<g id="Path" transform="translate(103.800000, 63.600000)">
		<path class="st1" d="M3.2,65.2L65.1,3.4c3.8-3.8,10.1-3.8,14,0l0,0c3.8,3.8,3.8,10.1,0,14L17.2,79.1c-3.8,3.8-10.1,3.8-14,0l0,0
			C-0.6,75.3-0.6,69.1,3.2,65.2z"/>
	</g>
	<g id="Path_1_" transform="translate(0.000000, 66.000000)">
		<path class="st1" d="M3.1,12.8l9.6-9.6c3.8-3.8,10.1-3.8,14,0l0,0c3.8,3.8,3.8,10.1,0,14L17,26.8c-3.8,3.8-10.1,3.8-14,0l0,0
			C-0.8,23-0.8,16.7,3.1,12.8z"/>
	</g>
	<g id="Path_2_" transform="translate(111.000000, 68.400000)">
		<path class="st1" d="M0.4,28.6L28.7,0.4c-1.9,1.9-2.9,4.4-2.9,7s1,5,2.9,7c3.8,3.8,10.1,3.8,14,0L14.4,42.6c1.9-1.9,2.9-4.4,2.9-7
			s-1-5-2.9-7C10.6,24.8,4.3,24.8,0.4,28.6z"/>
	</g>
	<g id="Path_3_" transform="translate(99.000000, 27.000000)">
		<path class="st1" d="M0.4,26.9L26.9,0.4C25,2.3,24,4.9,24,7.4s1,5,2.9,7c3.8,3.8,10.1,3.8,14,0L14.3,40.9c1.9-1.9,2.9-4.4,2.9-7
			c0-2.5-1-5-2.9-7C10.4,23.1,4.2,23.1,0.4,26.9z"/>
	</g>
	<g id="Path_4_" transform="translate(87.000000, 10.200000)">
		<path class="st1" d="M2.9,80.5L80.3,3.2c3.8-3.8,10.1-3.8,14,0l0,0c3.8,3.8,3.8,10.1,0,14L16.9,94.4c-3.8,3.8-10.1,3.8-14,0l0,0
			C-0.9,90.6-0.9,84.4,2.9,80.5z"/>
	</g>
	<g id="Path_5_" transform="translate(10.800000, 3.000000)">
		<path class="st1" d="M3.2,108.7L108.4,3.4c3.8-3.8,10.1-3.8,14,0l0,0c3.8,3.8,3.8,10.1,0,14L17.2,122.6c-3.8,3.8-10.1,3.8-14,0
			l0,0C-0.7,118.7-0.7,112.5,3.2,108.7z"/>
	</g>
	<g id="Path_6_" transform="translate(29.400000, 0.000000)">
		<path class="st1" d="M3.2,42.4L42.2,3.3c3.8-3.8,10.1-3.8,14,0l0,0c3.8,3.8,3.8,10.1,0,14L17.2,56.3c-3.8,3.8-10.1,3.8-14,0l0,0
			C-0.7,52.5-0.7,46.2,3.2,42.4z"/>
	</g>
	<g id="Path_7_" transform="translate(64.200000, 109.200000)">
		<path class="st1" d="M3.1,3.5l0.2-0.2c3.8-3.8,10.1-3.8,14,0l0,0c3.8,3.8,3.8,10.1,0,14L17,17.5c-3.8,3.8-10.1,3.8-14,0l0,0
			C-0.8,13.7-0.8,7.4,3.1,3.5z"/>
	</g>
</g>
<path id="Path_8_" class="st2" d="M123.8,134.8h-15.5H108H92.5c0,8.1-6.8,13.6-6.8,13.6H108h0.2h22.4
	C130.7,148.3,123.8,142.8,123.8,134.8z"/>
<path id="Shape" class="st3" d="M130.7,149H85.6c-0.2,0-0.5-0.2-0.6-0.4c-0.1-0.2,0-0.5,0.2-0.7c0.1-0.1,6.7-5.5,6.7-13.1
	c0-0.4,0.3-0.6,0.6-0.6h31.3c0.4,0,0.6,0.3,0.6,0.6c0,7.7,6.5,13.1,6.7,13.1c0.2,0.2,0.3,0.4,0.2,0.7
	C131.2,148.8,130.9,149,130.7,149z M87.2,147.7h41.8c-2-2-5.6-6.4-5.9-12.4H93.1C92.9,141.3,89.2,145.7,87.2,147.7z"/>
<rect id="Rectangle" x="82.5" y="148.3" class="st2" width="51.3" height="2.9"/>
<path id="Shape_1_" class="st1" d="M133.8,151.9H82.5c-0.4,0-0.6-0.3-0.6-0.6v-2.9c0-0.4,0.3-0.6,0.6-0.6h51.3
	c0.4,0,0.6,0.3,0.6,0.6v2.9C134.5,151.6,134.2,151.9,133.8,151.9z M83.1,150.6h50.1V149h-50L83.1,150.6L83.1,150.6z"/>
<path id="Path_9_" class="st2" d="M175.4,132.1c0,1.6-1.3,2.9-2.9,2.9H43.8c-1.6,0-2.9-1.3-2.9-2.9V45c0-1.6,1.3-2.9,2.9-2.9h128.6
	c1.6,0,2.9,1.3,2.9,2.9L175.4,132.1L175.4,132.1z"/>
<path id="Shape_2_" class="st1" d="M172.5,135.6H43.8c-1.9,0-3.5-1.6-3.5-3.5V45c0-1.9,1.6-3.5,3.5-3.5h128.6c1.9,0,3.5,1.6,3.5,3.5
	v87.1C176,134,174.4,135.6,172.5,135.6z M43.8,42.7c-1.3,0-2.3,1-2.3,2.3v87.1c0,1.3,1,2.3,2.3,2.3h128.6c1.3,0,2.3-1,2.3-2.3V45
	c0-1.3-1-2.3-2.3-2.3H43.8z"/>
<rect id="Rectangle_1_" x="46.7" y="48.6" class="st4" width="122.9" height="68.6"/>
<path id="Shape_3_" class="st3" d="M169.6,117.9H46.7c-0.4,0-0.6-0.3-0.6-0.6V48.6c0-0.4,0.3-0.6,0.6-0.6h122.9
	c0.4,0,0.6,0.3,0.6,0.6v68.6C170.2,117.6,169.9,117.9,169.6,117.9z M47.3,116.6H169V49.2H47.3V116.6z"/>
<path id="Path_10_" class="st3" d="M224.6,151.9H0.6c-0.4,0-0.6-0.3-0.6-0.6c0-0.3,0.3-0.6,0.6-0.6h224c0.4,0,0.6,0.3,0.6,0.6
	C225.2,151.6,225,151.9,224.6,151.9z"/>
<path id="Shape_4_" class="st2" d="M164.7,128.8c-3.8,0-6.8,3.7-6.8,8.3s3.1,8.3,6.8,8.3s6.8-3.7,6.8-8.3S168.5,128.8,164.7,128.8z
	 M164.7,142.8c-2.6,0-4.7-2.5-4.7-5.7c0-3.1,2.1-5.7,4.7-5.7s4.7,2.5,4.7,5.7C169.4,140.3,167.3,142.8,164.7,142.8z"/>
<path id="Shape_5_" class="st3" d="M164.7,146.1c-4.1,0-7.5-4-7.5-8.9s3.4-8.9,7.5-8.9s7.5,4,7.5,8.9S168.8,146.1,164.7,146.1z
	 M164.7,129.5c-3.4,0-6.2,3.4-6.2,7.7s2.8,7.7,6.2,7.7s6.2-3.4,6.2-7.7S168.1,129.5,164.7,129.5z M164.7,143.5
	c-2.9,0-5.3-2.8-5.3-6.3s2.4-6.3,5.3-6.3s5.3,2.8,5.3,6.3S167.6,143.5,164.7,143.5z M164.7,132.1c-2.2,0-4.1,2.3-4.1,5
	c0,2.8,1.8,5,4.1,5c2.2,0,4.1-2.3,4.1-5C168.7,134.3,166.9,132.1,164.7,132.1z"/>
<path id="Path_11_" class="st2" d="M157.9,151.1h-11.2c-3.4,0-6.2-2.8-6.2-6.2v-19h23.6v19C164.1,148.3,161.3,151.1,157.9,151.1z"/>
<path id="Shape_6_" class="st1" d="M161,151.7h-17.5c-2,0-3.7-1.7-3.7-3.7v-22.1c0-0.4,0.3-0.6,0.6-0.6H164c0.4,0,0.6,0.3,0.6,0.6
	V148C164.8,150.1,163.1,151.7,161,151.7z M141.1,126.5V148c0,1.4,1.1,2.5,2.5,2.5H161c1.4,0,2.5-1.1,2.5-2.5v-21.4H141.1
	L141.1,126.5z"/>
<g id="Group_7_" transform="translate(48.000000, 23.400000)">
	<path id="Path_12_" class="st5" d="M3.1,6.5c-0.4,0-0.6-0.3-0.6-0.6v-5c0-0.4,0.3-0.6,0.6-0.6s0.6,0.3,0.6,0.6v5
		C3.7,6.2,3.4,6.5,3.1,6.5z"/>
	<path id="Path_13_" class="st5" d="M5.5,4H0.6C0.2,4,0,3.7,0,3.4c0-0.4,0.3-0.6,0.6-0.6h5c0.4,0,0.6,0.3,0.6,0.6S5.9,4,5.5,4z"/>
</g>
<path id="Shape_7_" class="st5" d="M211,37.1c-1.3,0-2.2-1-2.2-2.2c0-1.2,1-2.2,2.2-2.2c1.3,0,2.2,1,2.2,2.2
	C213.2,36.1,212.2,37.1,211,37.1z M211,33.9c-0.5,0-1,0.4-1,1s0.4,1,1,1c0.5,0,1-0.4,1-1S211.5,33.9,211,33.9z"/>
<path id="Shape_8_" class="st6" d="M21.5,65.9c-1.3,0-2.2-1-2.2-2.2c0-1.3,1-2.2,2.2-2.2c1.3,0,2.2,1,2.2,2.2S22.7,65.9,21.5,65.9z
	 M21.5,62.6c-0.5,0-1,0.4-1,1c0,0.5,0.4,1,1,1c0.5,0,1-0.4,1-1C22.5,63.1,22.1,62.6,21.5,62.6z"/>
<path id="Shape_9_" class="st5" d="M169.4,6.6c-0.3,0-0.5-0.2-0.6-0.5l-0.7-2.5c-0.1-0.2,0-0.4,0.1-0.5c0.1-0.1,0.2-0.2,0.4-0.3
	l2.5-0.7c0.4-0.1,0.7,0.1,0.8,0.4l0.7,2.5c0.1,0.2,0,0.4-0.1,0.5s-0.2,0.2-0.4,0.3l-2.5,0.7C169.6,6.6,169.5,6.6,169.4,6.6z
	 M169.6,3.9l0.4,1.3l1.3-0.4l-0.4-1.3L169.6,3.9z"/>
<path id="Shape_10_" class="st6" d="M70.8,4.7c-1.1,0-2.1-1-2.1-2.1s1-2.1,2.1-2.1s2.1,1,2.1,2.1S71.9,4.7,70.8,4.7z M70.8,1.7
	c-0.5,0-0.8,0.4-0.8,0.8s0.4,0.8,0.8,0.8c0.5,0,0.8-0.4,0.8-0.8S71.3,1.7,70.8,1.7z"/>
<path id="Shape_11_" class="st7" d="M13.4,41.9c-1.1,0-2.1-1-2.1-2.1s1-2.1,2.1-2.1s2.1,1,2.1,2.1S14.6,41.9,13.4,41.9z M13.4,38.9
	c-0.5,0-0.8,0.4-0.8,0.8s0.4,0.8,0.8,0.8c0.5,0,0.8-0.4,0.8-0.8S13.9,38.9,13.4,38.9z"/>
<g id="Group_8_" transform="translate(112.200000, 2.400000)">
	<path id="Path_14_" class="st3" d="M4.5,8.6C4.1,8.6,3.9,8.3,3.9,8V1.1c0-0.4,0.3-0.6,0.6-0.6c0.4,0,0.6,0.3,0.6,0.6v6.8
		C5.2,8.3,4.9,8.6,4.5,8.6z"/>
	<path id="Path_15_" class="st3" d="M7.9,5.2H1.1c-0.4,0-0.6-0.3-0.6-0.6C0.5,4.2,0.8,4,1.1,4h6.8c0.4,0,0.6,0.3,0.6,0.6
		C8.6,4.9,8.3,5.2,7.9,5.2z"/>
</g>
<g id="Group_9_" transform="translate(204.600000, 55.200000)" class="st8">
	<path id="Path_16_" class="st1" d="M4.3,8.1c-0.4,0-0.6-0.3-0.6-0.6V0.6C3.7,0.2,4,0,4.3,0c0.4,0,0.6,0.3,0.6,0.6v6.8
		C4.9,7.8,4.6,8.1,4.3,8.1z"/>
	<path id="Path_17_" class="st1" d="M7.7,4.7H0.8c-0.4,0-0.6-0.3-0.6-0.6c0-0.4,0.3-0.6,0.6-0.6h6.8c0.4,0,0.6,0.3,0.6,0.6
		S8,4.7,7.7,4.7z"/>
</g>
<g id="Group_10_" transform="translate(67.800000, 55.200000)">
	<rect id="Rectangle_2_" x="0.5" y="0.5" class="st2" width="22.7" height="24.9"/>
	<g transform="translate(2.400000, 12.600000)">
		<g id="Rectangle_3_">
			<rect x="0.2" y="0.4" class="st9" width="8.4" height="1.3"/>
			<rect x="0.2" y="3" class="st9" width="6.5" height="1"/>
		</g>
		<path id="Path_18_" class="st10" d="M17.6,3.1h-5c-0.7,0-1.3-0.6-1.3-1.3l0,0c0-0.7,0.6-1.3,1.3-1.3h5C18.4,0.4,19,1,19,1.7l0,0
			C19,2.5,18.4,3.1,17.6,3.1z"/>
	</g>
	<g transform="translate(2.400000, 18.600000)">
		<g id="Rectangle_4_">
			<rect x="0.2" y="0.3" class="st9" width="8.4" height="1.3"/>
			<rect x="0.2" y="2.9" class="st9" width="6.5" height="1"/>
		</g>
		<path id="Shape_12_" class="st11" d="M17.6,3.2h-5c-0.9,0-1.6-0.7-1.6-1.6S11.7,0,12.6,0h5c0.9,0,1.6,0.7,1.6,1.6
			S18.5,3.2,17.6,3.2z M12.6,0.6c-0.5,0-1,0.5-1,1s0.5,1,1,1h5c0.5,0,1-0.5,1-1s-0.5-1-1-1H12.6z"/>
	</g>
	<rect id="Rectangle_5_" x="1.6" y="1.5" class="st12" width="20.3" height="9.5"/>
	<circle id="Oval" class="st2" cx="5.7" cy="6.1" r="3.5"/>
	<g id="Rectangle_6_" transform="translate(10.200000, 3.600000)">
		<rect x="0.5" y="0.5" class="st9" width="9.5" height="2.1"/>
		<rect x="0.5" y="3.7" class="st9" width="7.3" height="1"/>
	</g>
</g>
<g id="Group_11_" transform="translate(94.800000, 55.200000)">
	<rect id="Rectangle_7_" x="0.2" y="0.5" class="st2" width="22.7" height="24.9"/>
	<g transform="translate(1.800000, 12.600000)">
		<g id="Rectangle_8_">
			<rect x="0.5" y="0.4" class="st9" width="8.4" height="1.3"/>
			<rect x="0.5" y="3" class="st9" width="6.5" height="1"/>
		</g>
		<path id="Path_19_" class="st10" d="M18,3.1h-5c-0.7,0-1.3-0.6-1.3-1.3l0,0c0-0.7,0.6-1.3,1.3-1.3h5c0.7,0,1.3,0.6,1.3,1.3l0,0
			C19.3,2.5,18.7,3.1,18,3.1z"/>
	</g>
	<g transform="translate(1.800000, 18.600000)">
		<g id="Rectangle_9_">
			<rect x="0.5" y="0.3" class="st9" width="8.4" height="1.3"/>
			<rect x="0.5" y="2.9" class="st9" width="6.5" height="1"/>
		</g>
		<path id="Shape_13_" class="st11" d="M18,3.2h-5c-0.9,0-1.6-0.7-1.6-1.6S12.1,0,13,0h5c0.9,0,1.6,0.7,1.6,1.6S18.9,3.2,18,3.2z
			 M13,0.6c-0.5,0-1,0.5-1,1s0.5,1,1,1h5c0.5,0,1-0.5,1-1s-0.5-1-1-1H13z"/>
	</g>
	<rect id="Rectangle_10_" x="1.3" y="1.5" class="st12" width="20.3" height="9.5"/>
	<circle id="Oval_1_" class="st2" cx="5.4" cy="6.1" r="3.5"/>
	<g id="Rectangle_11_" transform="translate(10.200000, 3.600000)">
		<rect x="0.3" y="0.5" class="st9" width="9.5" height="2.1"/>
		<rect x="0.3" y="3.7" class="st9" width="7.3" height="1"/>
	</g>
</g>
<g id="Group_12_" transform="translate(121.200000, 55.200000)">
	<rect id="Rectangle_12_" x="0.5" y="0.5" class="st2" width="22.7" height="24.9"/>
	<g transform="translate(2.400000, 12.600000)">
		<g id="Rectangle_13_">
			<rect x="0.2" y="0.4" class="st9" width="8.4" height="1.3"/>
			<rect x="0.2" y="3" class="st9" width="6.5" height="1"/>
		</g>
		<path id="Path_20_" class="st10" d="M17.8,3.1h-5c-0.7,0-1.3-0.6-1.3-1.3l0,0c0-0.7,0.6-1.3,1.3-1.3h5c0.7,0,1.3,0.6,1.3,1.3l0,0
			C19.1,2.5,18.5,3.1,17.8,3.1z"/>
	</g>
	<g transform="translate(2.400000, 18.600000)">
		<g id="Rectangle_14_">
			<rect x="0.2" y="0.3" class="st9" width="8.4" height="1.3"/>
			<rect x="0.2" y="2.9" class="st9" width="6.5" height="1"/>
		</g>
		<path id="Shape_14_" class="st11" d="M17.8,3.2h-5c-0.9,0-1.6-0.7-1.6-1.6S11.8,0,12.7,0h5c0.9,0,1.6,0.7,1.6,1.6
			C19.3,2.5,18.6,3.2,17.8,3.2z M12.7,0.6c-0.5,0-1,0.5-1,1s0.5,1,1,1h5c0.5,0,1-0.5,1-1s-0.5-1-1-1H12.7z"/>
	</g>
	<rect id="Rectangle_15_" x="1.7" y="1.5" class="st12" width="20.3" height="9.5"/>
	<circle id="Oval_2_" class="st2" cx="5.8" cy="6.1" r="3.5"/>
	<g id="Rectangle_16_" transform="translate(10.800000, 3.600000)">
		<rect x="0" y="0.5" class="st9" width="9.5" height="2.1"/>
		<rect x="0" y="3.7" class="st9" width="7.3" height="1"/>
	</g>
</g>
<g id="Group_13_" transform="translate(67.800000, 83.400000)">
	<rect id="Rectangle_17_" x="0.5" y="0.4" class="st2" width="22.7" height="24.9"/>
	<g transform="translate(2.400000, 12.600000)">
		<g id="Rectangle_18_">
			<rect x="0.2" y="0.4" class="st9" width="8.4" height="1.3"/>
			<rect x="0.2" y="3" class="st9" width="6.5" height="1"/>
		</g>
		<path id="Path_21_" class="st10" d="M17.6,3h-5c-0.7,0-1.3-0.6-1.3-1.3l0,0c0-0.7,0.6-1.3,1.3-1.3h5C18.4,0.4,19,1,19,1.7l0,0
			C19,2.5,18.4,3,17.6,3z"/>
	</g>
	<g transform="translate(2.400000, 18.600000)">
		<g id="Rectangle_19_">
			<rect x="0.2" y="0.3" class="st9" width="8.4" height="1.3"/>
			<rect x="0.2" y="2.9" class="st9" width="6.5" height="1"/>
		</g>
		<path id="Shape_15_" class="st11" d="M17.6,3.2h-5c-0.9,0-1.6-0.7-1.6-1.6S11.7,0,12.6,0h5c0.9,0,1.6,0.7,1.6,1.6
			S18.5,3.2,17.6,3.2z M12.6,0.6c-0.5,0-1,0.5-1,1s0.5,1,1,1h5c0.5,0,1-0.5,1-1s-0.5-1-1-1H12.6z"/>
	</g>
	<rect id="Rectangle_20_" x="1.6" y="1.5" class="st12" width="20.3" height="9.5"/>
	<circle id="Oval_3_" class="st2" cx="5.7" cy="6.1" r="3.5"/>
	<g id="Rectangle_21_" transform="translate(10.200000, 3.600000)">
		<rect x="0.5" y="0.5" class="st9" width="9.5" height="2.1"/>
		<rect x="0.5" y="3.7" class="st9" width="7.3" height="1"/>
	</g>
</g>
<g id="Group_14_" transform="translate(94.800000, 83.400000)">
	<rect id="Rectangle_22_" x="0.2" y="0.4" class="st2" width="22.7" height="24.9"/>
	<g transform="translate(1.800000, 12.600000)">
		<g id="Rectangle_23_">
			<rect x="0.5" y="0.4" class="st9" width="8.4" height="1.3"/>
			<rect x="0.5" y="3" class="st9" width="6.5" height="1"/>
		</g>
		<path id="Path_22_" class="st10" d="M18,3h-5c-0.7,0-1.3-0.6-1.3-1.3l0,0c0-0.7,0.6-1.3,1.3-1.3h5c0.7,0,1.3,0.6,1.3,1.3l0,0
			C19.3,2.5,18.7,3,18,3z"/>
	</g>
	<g transform="translate(1.800000, 18.600000)">
		<g id="Rectangle_24_">
			<rect x="0.5" y="0.3" class="st9" width="8.4" height="1.3"/>
			<rect x="0.5" y="2.9" class="st9" width="6.5" height="1"/>
		</g>
		<path id="Shape_16_" class="st11" d="M18,3.2h-5c-0.9,0-1.6-0.7-1.6-1.6S12.1,0,13,0h5c0.9,0,1.6,0.7,1.6,1.6S18.9,3.2,18,3.2z
			 M13,0.6c-0.5,0-1,0.5-1,1s0.5,1,1,1h5c0.5,0,1-0.5,1-1s-0.5-1-1-1H13z"/>
	</g>
	<rect id="Rectangle_25_" x="1.3" y="1.5" class="st12" width="20.3" height="9.5"/>
	<circle id="Oval_4_" class="st2" cx="5.4" cy="6.1" r="3.5"/>
	<g id="Rectangle_26_" transform="translate(10.200000, 3.600000)">
		<rect x="0.3" y="0.5" class="st9" width="9.5" height="2.1"/>
		<rect x="0.3" y="3.7" class="st9" width="7.3" height="1"/>
	</g>
</g>
<g id="Group_15_" transform="translate(121.200000, 83.400000)">
	<rect id="Rectangle_27_" x="0.5" y="0.4" class="st2" width="22.7" height="24.9"/>
	<g transform="translate(2.400000, 12.600000)">
		<g id="Rectangle_28_">
			<rect x="0.2" y="0.4" class="st9" width="8.4" height="1.3"/>
			<rect x="0.2" y="3" class="st9" width="6.5" height="1"/>
		</g>
		<path id="Path_23_" class="st10" d="M17.8,3h-5c-0.7,0-1.3-0.6-1.3-1.3l0,0c0-0.7,0.6-1.3,1.3-1.3h5c0.7,0,1.3,0.6,1.3,1.3l0,0
			C19.1,2.5,18.5,3,17.8,3z"/>
	</g>
	<g transform="translate(2.400000, 18.600000)">
		<g id="Rectangle_29_">
			<rect x="0.2" y="0.3" class="st9" width="8.4" height="1.3"/>
			<rect x="0.2" y="2.9" class="st9" width="6.5" height="1"/>
		</g>
		<path id="Shape_17_" class="st11" d="M17.8,3.2h-5c-0.9,0-1.6-0.7-1.6-1.6S11.8,0,12.7,0h5c0.9,0,1.6,0.7,1.6,1.6
			C19.3,2.5,18.6,3.2,17.8,3.2z M12.7,0.6c-0.5,0-1,0.5-1,1s0.5,1,1,1h5c0.5,0,1-0.5,1-1s-0.5-1-1-1H12.7z"/>
	</g>
	<rect id="Rectangle_30_" x="1.7" y="1.5" class="st12" width="20.3" height="9.5"/>
	<circle id="Oval_5_" class="st2" cx="5.8" cy="6.1" r="3.5"/>
	<g id="Rectangle_31_" transform="translate(10.800000, 3.600000)">
		<rect x="0" y="0.5" class="st9" width="9.5" height="2.1"/>
		<rect x="0" y="3.7" class="st9" width="7.3" height="1"/>
	</g>
</g>
<path id="Path_24_" class="st2" d="M74.7,148.3c0,1.6-1.3,2.9-2.9,2.9H30.6c-1.6,0-2.9-1.3-2.9-2.9V91.2c0-1.6,1.3-2.9,2.9-2.9h41.2
	c1.6,0,2.9,1.3,2.9,2.9V148.3z"/>
<path id="Shape_18_" class="st1" d="M71.8,151.9H30.6c-1.9,0-3.5-1.6-3.5-3.5V91.2c0-1.9,1.6-3.5,3.5-3.5h41.2
	c1.9,0,3.5,1.6,3.5,3.5v57.1C75.3,150.3,73.7,151.9,71.8,151.9z M30.6,89c-1.3,0-2.3,1-2.3,2.3v57.1c0,1.3,1,2.3,2.3,2.3h41.2
	c1.3,0,2.3-1,2.3-2.3V91.3c0-1.3-1-2.3-2.3-2.3H30.6z"/>
<rect id="Rectangle_32_" x="30.6" y="93.7" class="st4" width="41.2" height="49.6"/>
<path id="Shape_19_" class="st3" d="M71.8,143.9H30.6c-0.4,0-0.6-0.3-0.6-0.6V93.7c0-0.4,0.3-0.6,0.6-0.6h41.2
	c0.4,0,0.6,0.3,0.6,0.6v49.6C72.4,143.6,72.1,143.9,71.8,143.9z M31.2,142.7h40V94.3h-40V142.7z"/>
<circle id="Oval_6_" class="st2" cx="51.2" cy="147.2" r="1.8"/>
<path id="Shape_20_" class="st3" d="M51.2,149.7c-1.3,0-2.5-1.1-2.5-2.5c0-1.3,1.1-2.5,2.5-2.5c1.3,0,2.5,1.1,2.5,2.5
	S52.6,149.7,51.2,149.7z M51.2,146.1c-0.7,0-1.2,0.5-1.2,1.2s0.5,1.2,1.2,1.2c0.7,0,1.2-0.5,1.2-1.2
	C52.4,146.6,51.8,146.1,51.2,146.1z"/>
<path id="Path_25_" class="st13" d="M54.1,91.3h-5.8c-0.2,0-0.4-0.2-0.4-0.4l0,0c0-0.2,0.2-0.4,0.4-0.4h5.8c0.2,0,0.4,0.2,0.4,0.4
	l0,0C54.4,91.1,54.3,91.3,54.1,91.3z"/>
<g id="Group_19_" transform="translate(34.200000, 95.400000)">
	<g>
		<rect id="Rectangle_33_" x="0.4" y="0.5" class="st2" width="10.7" height="14.3"/>
		<g id="Rectangle_34_" transform="translate(1.200000, 7.200000)">
			<rect x="0.5" y="0.5" class="st9" width="3.8" height="1"/>
			<rect x="0.5" y="2" class="st9" width="3" height="1"/>
		</g>
		<path id="Path_26_" class="st10" d="M9.1,9.2H7.3c-0.4,0-0.8-0.4-0.8-0.8l0,0c0-0.4,0.4-0.8,0.8-0.8h1.7c0.4,0,0.8,0.4,0.8,0.8
			l0,0C9.8,8.9,9.5,9.2,9.1,9.2z"/>
		<g id="Rectangle_35_" transform="translate(1.200000, 10.800000)">
			<rect x="0.5" y="0.3" class="st9" width="3.8" height="1"/>
			<rect x="0.5" y="1.8" class="st9" width="3" height="1"/>
		</g>
		<path id="Shape_21_" class="st11" d="M9.2,12.8H7.3c-0.4,0-0.8-0.4-0.8-0.8v-0.2c0-0.4,0.4-0.8,0.8-0.8h1.9c0.4,0,0.8,0.4,0.8,0.8
			V12C10,12.4,9.6,12.8,9.2,12.8z M7.3,11.3c-0.3,0-0.5,0.2-0.5,0.5V12c0,0.3,0.2,0.5,0.5,0.5h1.9c0.3,0,0.5-0.2,0.5-0.5v-0.2
			c0-0.3-0.2-0.5-0.5-0.5H7.3z"/>
		<rect id="Rectangle_36_" x="0.9" y="1.1" class="st12" width="9.5" height="5.4"/>
		<ellipse id="Oval_7_" class="st2" cx="3.6" cy="3.8" rx="2.2" ry="2"/>
		<g id="Rectangle_37_" transform="translate(6.600000, 2.400000)">
			<rect x="0.1" y="0.2" class="st9" width="2.5" height="1.2"/>
			<rect x="0.1" y="2.1" class="st9" width="1.9" height="1"/>
		</g>
	</g>
	<g transform="translate(12.000000, 0.000000)">
		<rect id="Rectangle_38_" x="0.1" y="0.5" class="st2" width="10.7" height="14.3"/>
		<g id="Rectangle_39_" transform="translate(1.200000, 7.200000)">
			<rect x="0.1" y="0.5" class="st9" width="3.8" height="1"/>
			<rect x="0.1" y="2" class="st9" width="3" height="1"/>
		</g>
		<path id="Path_27_" class="st10" d="M8.8,9.2H7c-0.4,0-0.8-0.4-0.8-0.8l0,0C6.2,8,6.6,7.7,7,7.7h1.7c0.4,0,0.8,0.4,0.8,0.8l0,0
			C9.5,8.9,9.1,9.2,8.8,9.2z"/>
		<g id="Rectangle_40_" transform="translate(1.200000, 10.800000)">
			<rect x="0.1" y="0.3" class="st9" width="3.8" height="1"/>
			<rect x="0.1" y="1.8" class="st9" width="3" height="1"/>
		</g>
		<path id="Shape_22_" class="st11" d="M8.8,12.8H6.9c-0.4,0-0.8-0.4-0.8-0.8v-0.2c0-0.4,0.4-0.8,0.8-0.8h1.9c0.4,0,0.8,0.4,0.8,0.8
			V12C9.6,12.4,9.3,12.8,8.8,12.8z M6.9,11.3c-0.3,0-0.5,0.2-0.5,0.5V12c0,0.3,0.2,0.5,0.5,0.5h1.9c0.3,0,0.5-0.2,0.5-0.5v-0.2
			c0-0.3-0.2-0.5-0.5-0.5H6.9z"/>
		<rect id="Rectangle_41_" x="0.6" y="1.1" class="st12" width="9.5" height="5.4"/>
		<ellipse id="Oval_8_" class="st2" cx="3.2" cy="3.8" rx="2.2" ry="2"/>
		<g id="Rectangle_42_" transform="translate(6.000000, 2.400000)">
			<rect x="0.4" y="0.2" class="st9" width="2.5" height="1.2"/>
			<rect x="0.4" y="2.1" class="st9" width="1.9" height="1"/>
		</g>
	</g>
	<g transform="translate(23.400000, 0.000000)">
		<rect id="Rectangle_43_" x="0.3" y="0.5" class="st2" width="10.7" height="14.3"/>
		<g id="Rectangle_44_" transform="translate(1.200000, 7.200000)">
			<rect x="0.4" y="0.5" class="st9" width="3.8" height="1"/>
			<rect x="0.4" y="2" class="st9" width="3" height="1"/>
		</g>
		<path id="Path_28_" class="st10" d="M9,9.2H7.3c-0.4,0-0.8-0.4-0.8-0.8l0,0c0-0.4,0.4-0.8,0.8-0.8H9c0.4,0,0.8,0.4,0.8,0.8l0,0
			C9.7,8.9,9.4,9.2,9,9.2z"/>
		<g id="Rectangle_45_" transform="translate(1.200000, 10.800000)">
			<rect x="0.4" y="0.3" class="st9" width="3.8" height="1"/>
			<rect x="0.4" y="1.8" class="st9" width="3" height="1"/>
		</g>
		<path id="Shape_23_" class="st11" d="M9.1,12.8H7.1c-0.4,0-0.8-0.4-0.8-0.8v-0.2c0-0.4,0.4-0.8,0.8-0.8h1.9c0.4,0,0.8,0.4,0.8,0.8
			V12C9.8,12.4,9.5,12.8,9.1,12.8z M7.1,11.3c-0.3,0-0.5,0.2-0.5,0.5V12c0,0.3,0.2,0.5,0.5,0.5h1.9c0.3,0,0.5-0.2,0.5-0.5v-0.2
			c0-0.3-0.2-0.5-0.5-0.5H7.1z"/>
		<rect id="Rectangle_46_" x="0.8" y="1.1" class="st12" width="9.5" height="5.4"/>
		<ellipse id="Oval_9_" class="st2" cx="3.5" cy="3.8" rx="2.2" ry="2"/>
		<g id="Rectangle_47_" transform="translate(6.600000, 2.400000)">
			<rect x="0" y="0.2" class="st9" width="2.5" height="1.2"/>
			<rect x="0" y="2.1" class="st9" width="1.9" height="1"/>
		</g>
	</g>
</g>
<g id="Group_20_" transform="translate(34.200000, 111.000000)">
	<g>
		<rect id="Rectangle_48_" x="0.4" y="0.5" class="st2" width="10.7" height="14.3"/>
		<g id="Rectangle_49_" transform="translate(1.200000, 7.200000)">
			<rect x="0.5" y="0.5" class="st9" width="3.8" height="1"/>
			<rect x="0.5" y="2" class="st9" width="3" height="1"/>
		</g>
		<path id="Path_29_" class="st10" d="M9.1,9.2H7.3c-0.4,0-0.8-0.4-0.8-0.8l0,0c0-0.4,0.4-0.8,0.8-0.8h1.7c0.4,0,0.8,0.4,0.8,0.8
			l0,0C9.8,8.9,9.5,9.2,9.1,9.2z"/>
		<g id="Rectangle_50_" transform="translate(1.200000, 10.800000)">
			<rect x="0.5" y="0.4" class="st9" width="3.8" height="1"/>
			<rect x="0.5" y="1.8" class="st9" width="3" height="1"/>
		</g>
		<path id="Shape_24_" class="st11" d="M9.2,12.8H7.3c-0.4,0-0.8-0.4-0.8-0.8v-0.2c0-0.4,0.4-0.8,0.8-0.8h1.9c0.4,0,0.8,0.4,0.8,0.8
			V12C10,12.4,9.6,12.8,9.2,12.8z M7.3,11.3c-0.3,0-0.5,0.2-0.5,0.5V12c0,0.3,0.2,0.5,0.5,0.5h1.9c0.3,0,0.5-0.2,0.5-0.5v-0.2
			c0-0.3-0.2-0.5-0.5-0.5H7.3z"/>
		<rect id="Rectangle_51_" x="0.9" y="1.1" class="st12" width="9.5" height="5.4"/>
		<ellipse id="Oval_10_" class="st2" cx="3.6" cy="3.8" rx="2.2" ry="2"/>
		<g id="Rectangle_52_" transform="translate(6.600000, 2.400000)">
			<rect x="0.1" y="0.2" class="st9" width="2.5" height="1.2"/>
			<rect x="0.1" y="2.1" class="st9" width="1.9" height="1"/>
		</g>
	</g>
	<g transform="translate(12.000000, 0.000000)">
		<rect id="Rectangle_53_" x="0.1" y="0.5" class="st2" width="10.7" height="14.3"/>
		<g id="Rectangle_54_" transform="translate(1.200000, 7.200000)">
			<rect x="0.1" y="0.5" class="st9" width="3.8" height="1"/>
			<rect x="0.1" y="2" class="st9" width="3" height="1"/>
		</g>
		<path id="Path_30_" class="st10" d="M8.8,9.2H7c-0.4,0-0.8-0.4-0.8-0.8l0,0C6.2,8,6.6,7.7,7,7.7h1.7c0.4,0,0.8,0.4,0.8,0.8l0,0
			C9.5,8.9,9.1,9.2,8.8,9.2z"/>
		<g id="Rectangle_55_" transform="translate(1.200000, 10.800000)">
			<rect x="0.1" y="0.4" class="st9" width="3.8" height="1"/>
			<rect x="0.1" y="1.8" class="st9" width="3" height="1"/>
		</g>
		<path id="Shape_25_" class="st11" d="M8.8,12.8H6.9c-0.4,0-0.8-0.4-0.8-0.8v-0.2c0-0.4,0.4-0.8,0.8-0.8h1.9c0.4,0,0.8,0.4,0.8,0.8
			V12C9.6,12.4,9.3,12.8,8.8,12.8z M6.9,11.3c-0.3,0-0.5,0.2-0.5,0.5V12c0,0.3,0.2,0.5,0.5,0.5h1.9c0.3,0,0.5-0.2,0.5-0.5v-0.2
			c0-0.3-0.2-0.5-0.5-0.5H6.9z"/>
		<rect id="Rectangle_56_" x="0.6" y="1.1" class="st12" width="9.5" height="5.4"/>
		<ellipse id="Oval_11_" class="st2" cx="3.2" cy="3.8" rx="2.2" ry="2"/>
		<g id="Rectangle_57_" transform="translate(6.000000, 2.400000)">
			<rect x="0.4" y="0.2" class="st9" width="2.5" height="1.2"/>
			<rect x="0.4" y="2.1" class="st9" width="1.9" height="1"/>
		</g>
	</g>
	<g transform="translate(23.400000, 0.000000)">
		<rect id="Rectangle_58_" x="0.3" y="0.5" class="st2" width="10.7" height="14.3"/>
		<g id="Rectangle_59_" transform="translate(1.200000, 7.200000)">
			<rect x="0.4" y="0.5" class="st9" width="3.8" height="1"/>
			<rect x="0.4" y="2" class="st9" width="3" height="1"/>
		</g>
		<path id="Path_31_" class="st10" d="M9,9.2H7.3c-0.4,0-0.8-0.4-0.8-0.8l0,0c0-0.4,0.4-0.8,0.8-0.8H9c0.4,0,0.8,0.4,0.8,0.8l0,0
			C9.7,8.9,9.4,9.2,9,9.2z"/>
		<g id="Rectangle_60_" transform="translate(1.200000, 10.800000)">
			<rect x="0.4" y="0.4" class="st9" width="3.8" height="1"/>
			<rect x="0.4" y="1.8" class="st9" width="3" height="1"/>
		</g>
		<path id="Shape_26_" class="st11" d="M9.1,12.8H7.1c-0.4,0-0.8-0.4-0.8-0.8v-0.2c0-0.4,0.4-0.8,0.8-0.8h1.9c0.4,0,0.8,0.4,0.8,0.8
			V12C9.8,12.4,9.5,12.8,9.1,12.8z M7.1,11.3c-0.3,0-0.5,0.2-0.5,0.5V12c0,0.3,0.2,0.5,0.5,0.5h1.9c0.3,0,0.5-0.2,0.5-0.5v-0.2
			c0-0.3-0.2-0.5-0.5-0.5H7.1z"/>
		<rect id="Rectangle_61_" x="0.8" y="1.1" class="st12" width="9.5" height="5.4"/>
		<ellipse id="Oval_12_" class="st2" cx="3.5" cy="3.8" rx="2.2" ry="2"/>
		<g id="Rectangle_62_" transform="translate(6.600000, 2.400000)">
			<rect x="0" y="0.2" class="st9" width="2.5" height="1.2"/>
			<rect x="0" y="2.1" class="st9" width="1.9" height="1"/>
		</g>
	</g>
</g>
<g id="Group_21_" transform="translate(34.200000, 127.200000)">
	<g>
		<rect id="Rectangle_63_" x="0.4" y="0" class="st2" width="10.7" height="14.3"/>
		<g id="Rectangle_64_" transform="translate(1.200000, 6.600000)">
			<rect x="0.5" y="0.5" class="st9" width="3.8" height="1"/>
			<rect x="0.5" y="2" class="st9" width="3" height="1"/>
		</g>
		<path id="Path_32_" class="st10" d="M9.1,8.7H7.3c-0.4,0-0.8-0.4-0.8-0.8l0,0c0-0.4,0.4-0.8,0.8-0.8h1.7c0.4,0,0.8,0.4,0.8,0.8
			l0,0C9.8,8.3,9.5,8.7,9.1,8.7z"/>
		<g id="Rectangle_65_" transform="translate(1.200000, 10.200000)">
			<rect x="0.5" y="0.4" class="st9" width="3.8" height="1"/>
			<rect x="0.5" y="1.9" class="st9" width="3" height="1"/>
		</g>
		<path id="Shape_27_" class="st11" d="M9.2,12.2H7.3c-0.4,0-0.8-0.4-0.8-0.8v-0.2c0-0.4,0.4-0.8,0.8-0.8h1.9c0.4,0,0.8,0.4,0.8,0.8
			v0.2C10,11.8,9.6,12.2,9.2,12.2z M7.3,10.7c-0.3,0-0.5,0.2-0.5,0.5v0.2c0,0.3,0.2,0.5,0.5,0.5h1.9c0.3,0,0.5-0.2,0.5-0.5v-0.2
			c0-0.3-0.2-0.5-0.5-0.5H7.3z"/>
		<rect id="Rectangle_66_" x="0.9" y="0.5" class="st12" width="9.5" height="5.4"/>
		<ellipse id="Oval_13_" class="st2" cx="3.6" cy="3.2" rx="2.2" ry="2"/>
		<g id="Rectangle_67_" transform="translate(6.600000, 1.800000)">
			<rect x="0.1" y="0.2" class="st9" width="2.5" height="1.2"/>
			<rect x="0.1" y="2.1" class="st9" width="1.9" height="1"/>
		</g>
	</g>
	<g transform="translate(12.000000, 0.000000)">
		<rect id="Rectangle_68_" x="0.1" y="0" class="st2" width="10.7" height="14.3"/>
		<g id="Rectangle_69_" transform="translate(1.200000, 6.600000)">
			<rect x="0.1" y="0.5" class="st9" width="3.8" height="1"/>
			<rect x="0.1" y="2" class="st9" width="3" height="1"/>
		</g>
		<path id="Path_33_" class="st10" d="M8.8,8.7H7c-0.4,0-0.8-0.4-0.8-0.8l0,0c0-0.4,0.4-0.8,0.8-0.8h1.7c0.4,0,0.8,0.4,0.8,0.8l0,0
			C9.5,8.3,9.1,8.7,8.8,8.7z"/>
		<g id="Rectangle_70_" transform="translate(1.200000, 10.200000)">
			<rect x="0.1" y="0.4" class="st9" width="3.8" height="1"/>
			<rect x="0.1" y="1.9" class="st9" width="3" height="1"/>
		</g>
		<path id="Shape_28_" class="st11" d="M8.8,12.2H6.9c-0.4,0-0.8-0.4-0.8-0.8v-0.2c0-0.4,0.4-0.8,0.8-0.8h1.9c0.4,0,0.8,0.4,0.8,0.8
			v0.2C9.6,11.8,9.3,12.2,8.8,12.2z M6.9,10.7c-0.3,0-0.5,0.2-0.5,0.5v0.2c0,0.3,0.2,0.5,0.5,0.5h1.9c0.3,0,0.5-0.2,0.5-0.5v-0.2
			c0-0.3-0.2-0.5-0.5-0.5H6.9z"/>
		<rect id="Rectangle_71_" x="0.6" y="0.5" class="st12" width="9.5" height="5.4"/>
		<ellipse id="Oval_14_" class="st2" cx="3.2" cy="3.2" rx="2.2" ry="2"/>
		<g id="Rectangle_72_" transform="translate(6.000000, 1.800000)">
			<rect x="0.4" y="0.2" class="st9" width="2.5" height="1.2"/>
			<rect x="0.4" y="2.1" class="st9" width="1.9" height="1"/>
		</g>
	</g>
	<g transform="translate(23.400000, 0.000000)">
		<rect id="Rectangle_73_" x="0.3" y="0" class="st2" width="10.7" height="14.3"/>
		<g id="Rectangle_74_" transform="translate(1.200000, 6.600000)">
			<rect x="0.4" y="0.5" class="st9" width="3.8" height="1"/>
			<rect x="0.4" y="2" class="st9" width="3" height="1"/>
		</g>
		<path id="Path_34_" class="st10" d="M9,8.7H7.3c-0.4,0-0.8-0.4-0.8-0.8l0,0c0-0.4,0.4-0.8,0.8-0.8H9c0.4,0,0.8,0.4,0.8,0.8l0,0
			C9.7,8.3,9.4,8.7,9,8.7z"/>
		<g id="Rectangle_75_" transform="translate(1.200000, 10.200000)">
			<rect x="0.4" y="0.4" class="st9" width="3.8" height="1"/>
			<rect x="0.4" y="1.9" class="st9" width="3" height="1"/>
		</g>
		<path id="Shape_29_" class="st11" d="M9.1,12.2H7.1c-0.4,0-0.8-0.4-0.8-0.8v-0.2c0-0.4,0.4-0.8,0.8-0.8h1.9c0.4,0,0.8,0.4,0.8,0.8
			v0.2C9.8,11.8,9.5,12.2,9.1,12.2z M7.1,10.7c-0.3,0-0.5,0.2-0.5,0.5v0.2c0,0.3,0.2,0.5,0.5,0.5h1.9c0.3,0,0.5-0.2,0.5-0.5v-0.2
			c0-0.3-0.2-0.5-0.5-0.5H7.1z"/>
		<rect id="Rectangle_76_" x="0.8" y="0.5" class="st12" width="9.5" height="5.4"/>
		<ellipse id="Oval_15_" class="st2" cx="3.5" cy="3.2" rx="2.2" ry="2"/>
		<g id="Rectangle_77_" transform="translate(6.600000, 1.800000)">
			<rect x="0" y="0.2" class="st9" width="2.5" height="1.2"/>
			<rect x="0" y="2.1" class="st9" width="1.9" height="1"/>
		</g>
	</g>
</g>
<path id="Path_35_" class="st2" d="M38.5,112.7c0-1.3-1-2.3-2.3-2.3L18,110.5c-1.3,0-2.3,1-2.3,2.3l0.2,36.4c0,1.3,1,2.3,2.3,2.3
	l18.2-0.1c1.3,0,2.3-1,2.3-2.3L38.5,112.7z"/>
<path id="Path_36_" class="st2" d="M38.5,112.7c0-1.3-1-2.3-2.3-2.3L18,110.5c-1.3,0-2.3,1-2.3,2.3l0.2,36.4c0,1.3,1,2.3,2.3,2.3
	l18.2-0.1c1.3,0,2.3-1,2.3-2.3L38.5,112.7z"/>
<path id="Shape_30_" class="st1" d="M18.2,152c-0.8,0-1.5-0.3-2-0.8c-0.5-0.5-0.8-1.3-0.8-2l-0.2-36.4c0-1.6,1.3-2.9,2.9-2.9
	l18.2-0.1l0,0c1.6,0,2.9,1.3,2.9,2.9l0,0l0.2,36.4c0,1.6-1.3,2.9-2.9,2.9L18.2,152L18.2,152z M36.2,111L36.2,111L18,111.1
	c-0.9,0-1.6,0.7-1.6,1.7l0.2,36.4c0,0.4,0.2,0.8,0.5,1.1c0.3,0.3,0.7,0.5,1.1,0.5l0,0l18.2-0.1c0.9,0,1.6-0.7,1.6-1.7l-0.2-36.4l0,0
	C37.9,111.8,37.1,111,36.2,111z"/>
<rect id="Rectangle_78_" x="18.7" y="114.8" transform="matrix(1 -5.657542e-03 5.657542e-03 1 -0.7369 0.1567)" class="st4" width="17.3" height="31.1"/>
<path id="Shape_31_" class="st3" d="M18.8,146.6c-0.4,0-0.6-0.3-0.6-0.6L18,114.8c0-0.2,0.1-0.3,0.2-0.4c0.1-0.1,0.3-0.2,0.4-0.2
	l17.3-0.1l0,0c0.4,0,0.6,0.3,0.6,0.6l0.2,31.1c0,0.2-0.1,0.3-0.2,0.4c-0.1,0.1-0.3,0.2-0.4,0.2L18.8,146.6L18.8,146.6z M19.3,115.4
	l0.2,29.8l16.1-0.1l-0.2-29.8L19.3,115.4z"/>
<path id="Path_37_" class="st13" d="M25.1,112.9c-0.1,0-0.2-0.1-0.2-0.2s0.1-0.2,0.2-0.2h4.6l0,0c0.1,0,0.2,0.1,0.2,0.2
	s-0.1,0.2-0.2,0.2H25.1L25.1,112.9z"/>
<path id="Path_38_" class="st2" d="M28.4,148.5c0,0.6-0.5,1.1-1.1,1.1c-0.6,0-1.1-0.5-1.1-1.1c0-0.6,0.5-1.1,1.1-1.1
	C28,147.4,28.4,147.9,28.4,148.5z"/>
<path id="Shape_32_" class="st3" d="M27.3,150.3c-0.5,0-0.9-0.2-1.3-0.5s-0.5-0.8-0.5-1.3c0-1,0.8-1.7,1.7-1.8l0,0
	c0.5,0,0.9,0.2,1.3,0.5c0.4,0.4,0.5,0.8,0.5,1.3l0,0c0,0.5-0.2,0.9-0.5,1.3C28.3,150.1,27.8,150.3,27.3,150.3L27.3,150.3z M27.3,148
	L27.3,148c-0.3,0-0.5,0.2-0.5,0.5c0,0.1,0.1,0.2,0.2,0.4c0.1,0.1,0.2,0.1,0.4,0.1l0,0c0.1,0,0.2-0.1,0.4-0.2
	c0.1-0.1,0.1-0.2,0.1-0.4c0-0.1-0.1-0.2-0.2-0.4C27.6,148.1,27.4,148,27.3,148z"/>
<g id="Group_25_" transform="translate(21.000000, 117.000000)">
	<rect id="Rectangle_79_" x="0.3" y="0.1" class="st2" width="11.8" height="12.7"/>
	<g transform="translate(1.200000, 6.000000)">
		<g id="Rectangle_80_">
			<rect x="0.2" y="0.5" class="st9" width="4.4" height="1"/>
			<rect x="0.2" y="1.8" class="st9" width="3.4" height="1"/>
		</g>
		<path id="Path_39_" class="st10" d="M9.3,1.9H6.6c-0.4,0-0.7-0.3-0.7-0.7l0,0c0-0.4,0.3-0.7,0.7-0.7h2.7c0.4,0,0.7,0.3,0.7,0.7
			l0,0C10,1.6,9.7,1.9,9.3,1.9z"/>
	</g>
	<g transform="translate(1.200000, 9.000000)">
		<g id="Rectangle_81_">
			<rect x="0.2" y="0.5" class="st9" width="4.4" height="1"/>
			<rect x="0.2" y="1.9" class="st9" width="3.4" height="1"/>
		</g>
		<path id="Shape_33_" class="st11" d="M9.3,2H6.6C6.2,2,5.8,1.6,5.8,1.1s0.4-0.8,0.8-0.8h2.7c0.4,0,0.8,0.4,0.8,0.8S9.8,2,9.3,2z
			 M6.7,0.7c-0.3,0-0.5,0.2-0.5,0.5s0.2,0.5,0.5,0.5h2.7c0.3,0,0.5-0.2,0.5-0.5S9.7,0.7,9.4,0.7H6.7z"/>
	</g>
	<rect id="Rectangle_82_" x="0.9" y="0.6" class="st12" width="10.6" height="4.8"/>
	<ellipse id="Oval_16_" class="st2" cx="3" cy="3" rx="1.9" ry="1.8"/>
	<g id="Rectangle_83_" transform="translate(5.400000, 1.800000)">
		<rect x="0.2" y="0.1" class="st9" width="5" height="1.1"/>
		<rect x="0.2" y="1.8" class="st9" width="3.8" height="1"/>
	</g>
</g>
<g id="Group_26_" transform="translate(21.000000, 130.800000)">
	<rect id="Rectangle_84_" x="0.3" y="0.1" class="st2" width="11.8" height="12.7"/>
	<g transform="translate(1.200000, 6.000000)">
		<g id="Rectangle_85_">
			<rect x="0.2" y="0.5" class="st9" width="4.4" height="1"/>
			<rect x="0.2" y="1.9" class="st9" width="3.4" height="1"/>
		</g>
		<path id="Path_40_" class="st10" d="M9.3,1.9H6.6c-0.4,0-0.7-0.3-0.7-0.7l0,0c0-0.4,0.3-0.7,0.7-0.7h2.7c0.4,0,0.7,0.3,0.7,0.7
			l0,0C10,1.6,9.7,1.9,9.3,1.9z"/>
	</g>
	<g transform="translate(1.200000, 9.000000)">
		<g id="Rectangle_86_">
			<rect x="0.2" y="0.5" class="st9" width="4.4" height="1"/>
			<rect x="0.2" y="1.9" class="st9" width="3.4" height="1"/>
		</g>
		<path id="Shape_34_" class="st11" d="M9.3,2H6.6C6.2,2,5.8,1.7,5.8,1.2c0-0.4,0.4-0.8,0.8-0.8h2.7c0.4,0,0.8,0.4,0.8,0.8
			S9.8,2,9.3,2z M6.7,0.7C6.4,0.7,6.1,1,6.1,1.3s0.2,0.5,0.5,0.5h2.7c0.3,0,0.5-0.2,0.5-0.5S9.7,0.7,9.4,0.7H6.7z"/>
	</g>
	<rect id="Rectangle_87_" x="0.9" y="0.7" class="st12" width="10.6" height="4.8"/>
	<ellipse id="Oval_17_" class="st2" cx="3" cy="3" rx="1.9" ry="1.8"/>
	<g id="Rectangle_88_" transform="translate(5.400000, 1.800000)">
		<rect x="0.2" y="0.2" class="st9" width="5" height="1.1"/>
		<rect x="0.2" y="1.9" class="st9" width="3.8" height="1"/>
	</g>
</g>
<g>
	<text transform="matrix(1 0 0 1 143.6758 142.127)"><tspan x="0" y="0" class="st14 st15 st16">Solid</tspan><tspan x="9.5" y="0" class="st3 st15 st16">City</tspan><tspan x="17.6" y="0" class="st17 st15 st16"> </tspan></text>
	<path class="st1" d="M149.6,135.3c-1.4-0.1-2.6-1.2-3.2-1.9c0.1,0,0.1,0,0.2-0.1c0-0.1,0-0.2,0-0.2c0,0,0,0,0,0c0,0,0,0.1,0,0.1
		c0,0.1-0.1,0.1-0.1,0.1c-0.1,0-0.1-0.1-0.1-0.2c0,0,0-0.1,0-0.1c0,0,0,0,0,0c-0.1,0-0.1,0.1-0.1,0.1c-0.2-0.3-0.3-0.4-0.3-0.4
		c0,0,0,0,0,0c0.1,0,0.3,0,0.5,0c0.1,0,0.2,0,0.2,0c0.8,0,1.8,0,2,0c0,0,0,0,0,0c0,0,0,0,0,0c0,0,0,0,0,0c0,0.1,0,0.2,0,0.3
		c0,0,0,0,0,0c-0.1,0.1-0.1,0.1-0.1,0.2c0,0.1,0.1,0.1,0.2,0.1c0.1,0,0.2,0,0.2-0.1c0-0.1,0-0.2-0.1-0.2c0-0.1,0-0.2,0-0.3
		c0.2,0,0.4,0,0.6,0c0.1,0,0.1,0,0.1,0.1c0,0.3,0,0.5,0.1,0.8c0,0.5,0.1,1,0.1,1.6C149.6,135.2,149.6,135.2,149.6,135.3z"/>
	<path class="st3" d="M153.8,137.6c0-0.2,0-0.2-0.2-0.2c0,0-0.1,0-0.1,0c0-0.1,0-0.1,0-0.2c0,0,0,0,0,0c0.1,0,0.1,0,0.1-0.1
		c0,0,0-0.1,0-0.1c0,0,0-0.1,0-0.1c0-0.1,0-0.2-0.1-0.3c-0.1,0,0-0.1,0-0.2c0-0.3,0-0.6,0-1c0-0.2-0.1-0.4-0.2-0.6
		c-0.3-0.4-0.5-0.8-0.8-1.1c-0.2-0.3-0.5-0.5-1-0.5c-0.4,0-0.8,0-1.2,0c-0.2,0-0.3,0.1-0.3,0.3c0,1.2,0,2.5,0,3.7
		c0,0.1,0,0.1-0.1,0.1c-0.7,0-1.4,0-2.1,0c0,0,0,0,0,0c0,0,0,0,0,0c0,0,0,0,0,0c0.2,0.2,0.3,0.4,0.3,0.6c0,0,0,0.1,0.1,0.1
		c0.8,0,1.5,0,2.3,0c0,0,0.1,0,0.1-0.1c0-0.1,0-0.2,0.1-0.2c0.2-0.5,0.7-0.7,1.3-0.6c0.4,0.1,0.8,0.4,0.8,0.9c0,0,0,0.1,0.1,0.1
		c0.3,0,0.6,0,0.8,0c0.1,0,0.1-0.1,0.1-0.2C153.8,137.8,153.8,137.7,153.8,137.6z M151.1,135.8c-0.1,0-0.2,0-0.4,0
		c-0.1,0-0.1,0-0.1-0.1c0-0.1,0-0.1,0.1-0.1c0.1,0,0.1,0,0.2,0c0.1,0,0.1,0,0.2,0C151.1,135.7,151.2,135.7,151.1,135.8
		C151.2,135.8,151.1,135.8,151.1,135.8z M151.9,135.2c0,0-0.1,0-0.2,0c-0.1,0-0.2,0-0.4,0c-0.2,0-0.4,0-0.5,0
		c-0.1,0-0.2-0.1-0.2-0.2c0-0.3,0-0.6,0-0.9c0-0.1,0.1-0.2,0.2-0.2c0.3,0,0.6,0,0.9,0c0.1,0,0.1,0,0.1,0.1c0,0.3,0.1,0.7,0.1,1
		C151.9,135,152,135.1,151.9,135.2z M152.5,135.2c-0.1,0-0.1,0-0.2,0c0,0-0.1,0-0.1-0.1c0-0.3-0.1-0.6-0.1-1c0,0,0,0,0,0
		c0.1,0.2,0.3,0.4,0.4,0.6c0,0.1,0.1,0.1,0.1,0.2C152.6,135.1,152.6,135.2,152.5,135.2z"/>
	<path class="st7" d="M149.6,137.1C149.6,137.1,149.6,137.1,149.6,137.1c-1.4,0-2.8,0-4.2,0c-0.1,0-0.1,0-0.1-0.1
		c0-0.4,0-0.8,0.1-1.2c0-0.3,0.1-0.9,0.1-0.9c0,0,0,0,0,0c0,0,0,0,0,0c0.1,0.1,3.9,0.6,4.1,1c0,0,0,0,0,0c0,0.1,0,0.3,0,0.3
		c0,0,0,0,0,0v0C149.6,136.5,149.6,137,149.6,137.1z"/>
	<polygon class="st18" points="145.5,134.9 145.5,134.9 145.5,134.9 	"/>
	<polygon class="st7" points="145.5,134.9 145.5,134.9 145.5,134.9 	"/>
	<path class="st3" d="M151.6,137.4c-0.5,0-0.8,0.4-0.8,0.8c0,0.4,0.4,0.9,0.8,0.8c0.5,0,0.8-0.4,0.8-0.8
		C152.5,137.8,152.1,137.4,151.6,137.4z M152,138.2c0,0.2-0.2,0.4-0.4,0.4c-0.2,0-0.4-0.2-0.4-0.4c0-0.2,0.2-0.4,0.4-0.4
		C151.9,137.8,152.1,138,152,138.2z"/>
	<path class="st3" d="M147,137.4c-0.5,0-0.8,0.4-0.8,0.8c0,0.5,0.4,0.8,0.8,0.8c0.4,0,0.8-0.4,0.8-0.8
		C147.8,137.8,147.5,137.4,147,137.4z M147,138.7c-0.2,0-0.4-0.1-0.4-0.3c0-0.1,0-0.2,0-0.3c0.1-0.2,0.2-0.3,0.4-0.3
		c0.2,0,0.3,0.1,0.4,0.3C147.5,138.4,147.3,138.6,147,138.7z"/>
	<path class="st3" d="M145.6,137.4c0.2,0,0.4,0,0.6,0c0,0,0,0,0,0c0,0,0,0,0,0c-0.2,0.2-0.3,0.4-0.3,0.6c0,0,0,0,0,0
		c-0.3,0-0.6,0-0.9,0c-0.1,0-0.1-0.1-0.1-0.2c0-0.1,0-0.2,0-0.4c0-0.1,0.1-0.2,0.2-0.2C145.2,137.4,145.4,137.4,145.6,137.4z"/>
	<polygon class="st19" points="145.5,134.9 145.5,134.9 145.5,134.9 	"/>
	<polygon class="st20" points="145.5,134.9 145.5,134.9 145.5,134.9 	"/>
	<path class="st20" d="M149.6,136.1C149.6,136.1,149.6,136.1,149.6,136.1c0,0,0-0.2,0-0.3c0-0.2,0-0.6,0-0.6c-2.7-0.4-3-2.5-3-2.6
		c0,0,0,0,0,0c-0.1,0-0.1,0-0.2,0c-0.2,0-0.4,0-0.5,0c0,0-0.1,0-0.1,0c-0.1,0-0.1,0-0.1,0.1c0,0.1,0,0.2,0,0.3
		c0,0.4-0.1,1.7-0.1,1.8c0,0,0,0,0,0C145.6,134.9,146.6,136.1,149.6,136.1L149.6,136.1C149.6,136.1,149.6,136.1,149.6,136.1z
		 M146.3,133.4c-0.1,0-0.1-0.1-0.1-0.2c0,0,0,0,0-0.1c0-0.1,0-0.1,0.1-0.1c0,0,0,0,0,0c0,0,0,0.1,0,0.1
		C146.2,133.2,146.2,133.3,146.3,133.4c0.1-0.1,0.2-0.1,0.2-0.2c0,0,0-0.1,0-0.1c0,0,0,0,0,0c0.1,0.1,0.1,0.2,0,0.2
		C146.5,133.3,146.4,133.4,146.3,133.4C146.3,133.4,146.3,133.4,146.3,133.4z"/>
	<path class="st17" d="M148.8,133.1c0,0.1,0,0.1-0.1,0.1c-0.1,0-0.1,0-0.1-0.1c0,0,0-0.1,0-0.1c0-0.1,0-0.2-0.1-0.3
		c0-0.1,0-0.2,0-0.2c-0.1-0.2-0.1-0.4-0.3-0.6c-0.1-0.1-0.3-0.2-0.5-0.2c-0.2,0-0.3,0-0.5,0.1c-0.2,0.1-0.4,0.2-0.6,0.9c0,0,0,0,0,0
		c0,0.1-0.1,0.3-0.1,0.3c0,0,0,0,0,0c0,0,0,0.1,0,0.1c0,0.1-0.1,0.1-0.1,0.1c-0.1,0-0.1-0.1-0.1-0.2c0,0,0-0.1,0-0.1c0,0,0,0,0,0
		c0,0,0-0.2,0.1-0.3c0,0,0,0,0,0c0-0.2,0.1-0.4,0.2-0.5c0.1-0.3,0.4-0.6,0.7-0.7c0.2-0.1,0.5-0.1,0.7,0c0.5,0.1,0.7,0.4,0.8,0.9
		C148.7,132.4,148.8,133.1,148.8,133.1z"/>
	<g>
		<text transform="matrix(1 0 0 1 143.8281 143.4121)" class="st3 st21 st22">courier service</text>
	</g>
	<g>
		<g>
			<path class="st3" d="M157.7,143.3L157.7,143.3L157.7,143.3L157.7,143.3L157.7,143.3z"/>
		</g>
	</g>
</g>
</svg>
