<?xml version="1.0" encoding="utf-8"?>
<!-- Generator: Adobe Illustrator 24.0.2, SVG Export Plug-In . SVG Version: 6.00 Build 0)  -->
<svg version="1.1" id="Layer_1" xmlns="http://www.w3.org/2000/svg" xmlns:xlink="http://www.w3.org/1999/xlink" x="0px" y="0px"
	 viewBox="0 0 100 100" style="enable-background:new 0 0 100 100;" xml:space="preserve">
<style type="text/css">
	.st0{fill:#081D22;}
	.st1{fill:#FFFFFF;}
	.st2{fill:#FFC415;}
</style>
<path class="st0" d="M73.3,86.1H28.5c-1,0-1.8-0.8-1.8-1.8V15.6c0-1,0.8-1.8,1.8-1.8h44.7c1,0,1.8,0.8,1.8,1.8v68.7
	C75,85.3,74.2,86.1,73.3,86.1z"/>
<path class="st1" d="M29.2,81.5V18.3c0-0.5,0.4-1,1-1h41.5c0.5,0,1,0.4,1,1v63.1c0,0.5-0.4,1-1,1H30.1C29.6,82.4,29.2,82,29.2,81.5z
	"/>
<path class="st0" d="M59.6,19.3H42.1c-0.8,0-1.5-0.7-1.5-1.5v-0.9c0-0.8,0.7-1.5,1.5-1.5h17.5c0.8,0,1.5,0.7,1.5,1.5v0.9
	C61.2,18.7,60.5,19.3,59.6,19.3z"/>
<path class="st2" d="M50.9,31.5c7.2,0,13.4,5.4,14.5,12.5c0.7,4.1-0.4,7.8-2.1,11.4c-2.3,5-5.5,9.5-9.1,13.7
	c-1.7,2.1-4.7,2.3-6.4,0.4c-4.6-5.4-8.7-11.1-10.9-17.9c-2.6-7.9,1-15.9,8.4-19c0.8-0.4,1.7-0.6,2.6-0.8
	C48.9,31.6,49.9,31.6,50.9,31.5z M50.9,41.1c-2.9,0-5.3,2.4-5.3,5.2c0,2.9,2.4,5.2,5.3,5.3c2.8,0,5.3-2.4,5.3-5.3
	C56.1,43.4,53.8,41,50.9,41.1z"/>
</svg>
