<?xml version="1.0" encoding="utf-8"?>
<!-- Generator: Adobe Illustrator 24.0.2, SVG Export Plug-In . SVG Version: 6.00 Build 0)  -->
<svg version="1.1" id="Layer_1" xmlns="http://www.w3.org/2000/svg" xmlns:xlink="http://www.w3.org/1999/xlink" x="0px" y="0px"
	 viewBox="0 0 100 100" style="enable-background:new 0 0 100 100;" xml:space="preserve">
<style type="text/css">
	.st0{fill:#FFC415;}
	.st1{fill:#081D22;}
	.st2{fill:none;stroke:#081D22;stroke-width:2.098;stroke-miterlimit:10;}
	.st3{fill:#FFFFFF;}
</style>
<path class="st0" d="M58.6,11.7c3.6,0,7.3,0,10.9,0c0.9,0,1.6,0.2,2,1.1c0.4,0.9,0,1.6-0.6,2.2c-1.9,2-3.8,4-5.7,6
	c-0.5,0.5-1,0.7-1.7,0.7c-3.3,0-6.6,0-9.9,0c-0.7,0-1.2-0.2-1.7-0.7c-1.9-2-3.8-4-5.8-6c-0.6-0.6-0.9-1.3-0.5-2.2
	c0.4-0.8,1.1-1.1,1.9-1.1C51.1,11.7,54.9,11.7,58.6,11.7z"/>
<path class="st1" d="M18.3,77.8h-4.6c-0.7,0-1.4-0.6-1.4-1.4V54.8c0-0.7,0.6-1.4,1.4-1.4h4.6c0.7,0,1.4,0.6,1.4,1.4v21.6
	C19.7,77.2,19.1,77.8,18.3,77.8z"/>
<path class="st2" d="M50.4,69.5c0,0,5.5,2.2,7.5,2.7s11.9,0,14.4-1.4c2.5-1.3,4.9-4.2,7.8-4.8s4.4,0.4,5,1.6c0.7,1.2-1.3,3-1.3,3
	s1.3,0,1.4,0.8s0.2,1.6-1.6,3.3c-1.8,1.7-10,7.3-10.8,7.5c-0.8,0.3-4.1,0.8-6.9,1.1c-2.7,0.3-11.6,2.4-15.2,1.8
	C47.2,84.5,29.1,75,27.6,74.8s-4.5,0.4-4.8-1.8c-0.3-2.1-0.3-14.5,0-15.2c0.3-0.6,0.3-1,3.7-1.7s10.2-2.3,15.7-1.1s10,3.9,11.2,4.2
	s11.5,1.4,13.9,2s5.1,2.4,4.9,5.1c-0.3,2.6-3.1,3.5-5.9,3.6S55.7,67.9,50.4,69.5z"/>
<path class="st0" d="M68.4,24c-0.4-0.3-1-0.4-1.5-0.4c-5.6,0-11.2,0-16.8,0c-0.5,0-1.1,0.2-1.6,0.4c-6.5,3.9-9.6,9.7-9.9,16.2
	c0,5,1.2,8.7,3.5,12.1c0.4,0.6,0.8,0.9,1.5,1c0.6,0.1,1.2,0.3,1.8,0.4c2.3,0.6,4.4,1.7,6.5,2.7c1.5,0.8,3.1,1.2,4.8,1.3
	c3.2,0.3,6.5,0.5,9.7,1.2c0.3,0.1,0.6,0,0.9-0.1c6.9-3.7,10.8-9.5,11-17.3C78.4,33.8,75,28,68.4,24z"/>
<path class="st3" d="M68.5,41.3c0,3-1.6,5.5-4.8,7.7c-1.2,0.8-2.1,1.3-2.8,1.5c-0.5,0.1-1.5,0.1-3.1,0c-0.7-0.1-1.5-0.5-2.4-1.2
	c-0.8-0.8-1.3-1.5-1.3-2.2s0-3.2,0-7.6H52l-2.3-2.3h4.6c0-0.2,0-1.8,0-4.6c0-1.1-0.6-1.6-1.7-1.6c-0.5,0-0.8,0.1-1,0.2
	c-0.2-0.5-0.4-1.2-0.8-2.2c1.4-0.6,2.5-0.7,3.4-0.4c1.7,0.6,2.5,1.7,2.4,3.5c0,1,0,2.1,0,3.4c0,0.8,0,1.4,0,1.8h1.3l2.3,2.3h-3.6
	v6.5c0,1.3,0.8,2,2.4,2c2,0,3.5-1,4.7-3.1c0.8-1.4,1.1-2.3,1-2.7c-1.2,0.1-2.1-0.1-2.8-0.7c-0.7-0.5-1-1.4-0.9-2.6
	c0.2-1.9,1.2-2.8,3.1-2.8C67.1,36.1,68.5,37.8,68.5,41.3z"/>
</svg>
