<?xml version="1.0" encoding="utf-8"?>
<!-- Generator: Adobe Illustrator 24.0.2, SVG Export Plug-In . SVG Version: 6.00 Build 0)  -->
<svg version="1.1" id="Layer_1" xmlns="http://www.w3.org/2000/svg" xmlns:xlink="http://www.w3.org/1999/xlink" x="0px" y="0px"
	 viewBox="0 0 100 100" style="enable-background:new 0 0 100 100;" xml:space="preserve">
<style type="text/css">
	.st0{fill:none;stroke:#081D22;stroke-width:2.877;stroke-linecap:round;stroke-linejoin:round;stroke-miterlimit:10;}
	.st1{fill:#FFFFFF;}
	.st2{fill:#081D22;}
	.st3{fill:#FFC415;}
</style>
<path class="st0" d="M88.4,35.5l-21.1,8.7l30,7.1L41.7,72.1"/>
<path class="st1" d="M57,75.1L32.6,87.4V59.3l23.3-11.1l1.1,0.7L57,75.1z"/>
<path class="st2" d="M5.2,61.9c0-4.3,0-8.6,0-12.9c0-0.8,0.2-1.2,1-1.5c8.2-3.8,16.5-7.7,24.9-11.5c0.7-0.3,1.5-0.3,2,0
	c8.1,3.8,16.1,7.6,24.1,11.4c0.7,0.3,1,0.7,1,1.5c0,8.6,0,17.1,0,25.9c0,1-0.3,1.3-1.2,1.8c-7.9,4-15.7,8.1-23.6,12.2
	c-0.7,0.3-1.2,0.5-1.8,0c-8.4-4.1-16.8-8.1-25.2-12.2c-0.8-0.3-1.2-0.8-1.2-1.8C5.4,70.5,5.2,66.2,5.2,61.9z M30.9,86.2
	c0-0.3,0.2-0.5,0.2-0.7c0-8.2,0-16.5,0-24.6c0-0.5-0.5-1.2-1-1.3c-7.1-3.1-14.2-6.3-21.3-9.4c-0.5-0.3-0.8-0.5-1.3-0.7
	c0,0.3-0.2,0.5-0.2,0.5c0,7.9,0,15.8,0,23.9c0,0.5,0.5,1,1,1.3c5.6,2.8,11.2,5.4,16.8,8.1C26.9,84.4,28.9,85.2,30.9,86.2z M41.3,56
	c-2.6,1.3-4.9,2.5-7.3,3.5c-0.8,0.3-1,0.8-1,1.6c0,8.1,0,16,0,24.1c0,0.3,0,0.7,0.2,1c0.3-0.2,0.5-0.2,0.7-0.2
	c7.1-3.6,14.3-7.3,21.4-10.9c0.3-0.2,0.8-1,0.8-1.5c0-6.8,0-13.3,0-20.1c0-1.3,0-2.8,0-4.3c-2.3,1.2-4.4,2.1-6.6,3
	c-0.7,0.3-1,0.8-1,1.5c0,3.3,0,6.8,0,10.1c0,0.8-0.2,1.3-1,1.6c-1.2,0.5-2.3,1.2-3.5,1.8c-0.8,0.5-1.6,0.8-2.6,1.3
	C41.3,64.3,41.3,60.3,41.3,56z M9.1,48.4C15.2,51,21,53.5,26.7,56c1.6,0.7,3.5,2,5.1,2s3.3-1.5,4.9-2.3c1-0.5,1.8-1,3-1.5
	c-7.3-3.1-14.2-6.3-21.1-9.4c-0.3-0.2-0.7-0.3-1-0.2C14.9,45.8,12.3,47.1,9.1,48.4z M25.1,41c0.2,0.3,0.3,0.3,0.3,0.3
	c7.1,3.3,14.3,6.4,21.4,9.7c0.3,0.2,0.7,0.2,0.8,0c2-1,3.8-1.8,5.9-3c-0.3-0.2-0.5-0.2-0.5-0.3c-6.9-3.1-13.8-6.3-20.8-9.4
	c-0.3-0.2-0.8-0.2-1.2,0C29.1,39.2,27.3,40.2,25.1,41z"/>
<path class="st3" d="M88.6,9.1c5,0,9.3,3.7,10.1,8.7c0.5,2.9-0.3,5.4-1.5,8c-1.6,3.5-3.9,6.6-6.3,9.5c-1.2,1.5-3.3,1.6-4.4,0.3
	c-3.2-3.7-6-7.7-7.6-12.4c-1.8-5.5,0.7-11,5.8-13.2c0.6-0.2,1.2-0.4,1.8-0.5C87.3,9.2,88,9.1,88.6,9.1z M88.6,15.7
	c-2,0-3.7,1.6-3.7,3.6s1.7,3.6,3.7,3.7c2,0,3.7-1.7,3.7-3.7S90.7,15.7,88.6,15.7z M41.2,68.9V55.2L15.3,43.4l7.3-3.3l26,11.6v13.2
	L41.2,68.9z"/>
</svg>
