<?xml version="1.0" encoding="utf-8"?>
<!-- Generator: Adobe Illustrator 24.0.2, SVG Export Plug-In . SVG Version: 6.00 Build 0)  -->
<svg version="1.1" id="Layer_1" xmlns="http://www.w3.org/2000/svg" xmlns:xlink="http://www.w3.org/1999/xlink" x="0px" y="0px"
	 viewBox="0 0 308.6 240.9" style="enable-background:new 0 0 308.6 240.9;" xml:space="preserve">
<style type="text/css">
	.st0{opacity:0.36;}
	.st1{fill:#FFC415;}
	.st2{fill:#FFA400;}
	.st3{fill:#F79720;}
	.st4{opacity:0.22;fill:#FFC415;}
	.st5{opacity:0.49;}
	.st6{opacity:0.38;fill:#FAAE1B;}
	.st7{fill:#FFFFFF;}
	.st8{fill:#FFFFFF;stroke:#323854;stroke-width:2.8;stroke-miterlimit:10;}
	.st9{opacity:0.54;fill:#F79720;}
	.st10{fill:none;}
	.st11{fill:#4BB7E9;}
	.st12{fill:#FFD272;stroke:#323854;stroke-width:2.8;stroke-linecap:round;stroke-linejoin:round;}
	.st13{fill:#E3EEF9;}
	.st14{fill:none;stroke:#FFC415;stroke-width:2.49;stroke-linecap:round;stroke-linejoin:round;}
	.st15{fill:none;stroke:#081D22;stroke-width:2.49;stroke-linecap:round;stroke-linejoin:round;}
	.st16{fill:#081D22;}
</style>
<title>World_Graphic</title>
<g class="st0">
	<path class="st1" d="M298.2,134.3l-101,101c-6.3,6.3-16.5,6.3-22.8,0l0,0c-6.3-6.3-6.3-16.5,0-22.8l101-101
		c6.3-6.3,16.5-6.3,22.8,0l0,0C304.5,117.8,304.5,128,298.2,134.3z"/>
	<path class="st1" d="M43.1,138.1l-15.6,15.6c-6.3,6.3-16.5,6.3-22.8,0l0,0c-6.3-6.3-6.3-16.5,0-22.8l15.6-15.6
		c6.3-6.3,16.5-6.3,22.8,0l0,0C49.4,121.6,49.4,131.8,43.1,138.1z"/>
	<path class="st1" d="M181.6,160.6l46.1-46.1c-6.3,6.3-6.3,16.5,0,22.8c6.3,6.3,16.5,6.3,22.8,0l-46.1,46.1c6.3-6.3,6.3-16.5,0-22.8
		S187.9,154.3,181.6,160.6L181.6,160.6L181.6,160.6z"/>
	<path class="st1" d="M161.9,90.3L205.1,47c-6.3,6.3-6.3,16.5,0,22.8c6.3,6.3,16.5,6.3,22.8,0l-43.2,43.2c6.3-6.3,6.3-16.5,0-22.8
		S168.2,84,161.9,90.3L161.9,90.3L161.9,90.3z"/>
	<path class="st1" d="M295.5,46.9L169.3,173.1c-6.3,6.3-16.5,6.3-22.8,0l0,0c-6.3-6.3-6.3-16.5,0-22.8L272.7,24.1
		c6.3-6.3,16.5-6.3,22.8,0l0,0C301.8,30.4,301.8,40.6,295.5,46.9z"/>
	<path class="st1" d="M217.1,35.5L45.4,207.3c-6.3,6.3-16.5,6.3-22.8,0l0,0c-6.3-6.3-6.3-16.5,0-22.8L194.3,12.7
		c6.3-6.3,16.5-6.3,22.8,0l0,0C223.4,19,223.4,29.2,217.1,35.5z"/>
	<path class="st1" d="M139.5,30.5L75.7,94.2c-6.3,6.3-16.5,6.3-22.8,0l0,0c-6.3-6.3-6.3-16.5,0-22.8l63.7-63.7
		c6.3-6.3,16.5-6.3,22.8,0l0,0C145.8,14,145.8,24.2,139.5,30.5z"/>
	<path class="st1" d="M132.6,208.7l-0.4,0.4c-6.3,6.3-16.5,6.3-22.8,0l0,0c-6.3-6.3-6.3-16.5,0-22.8l0.4-0.4
		c6.3-6.3,16.5-6.3,22.8,0l0,0C138.9,192.2,138.9,202.4,132.6,208.7z"/>
</g>
<path class="st2" d="M55.7,42.2c-0.6,0-1-0.4-1-1v-8.1c0-0.6,0.5-1,1-1s1,0.5,1,1v8.1C56.7,41.7,56.3,42.2,55.7,42.2
	C55.7,42.2,55.7,42.2,55.7,42.2z"/>
<path class="st2" d="M59.7,38.2h-8.1c-0.6,0-1-0.4-1-1s0.4-1,1-1h8.1c0.6,0,1,0.4,1,1S60.3,38.2,59.7,38.2z"/>
<path class="st3" d="M300.6,75.2c-2,0-3.7-1.6-3.7-3.7c0-2,1.6-3.7,3.7-3.7c2,0,3.7,1.6,3.7,3.7c0,0,0,0,0,0
	C304.3,73.5,302.6,75.2,300.6,75.2z M300.6,69.9c-0.9,0-1.6,0.7-1.6,1.6c0,0.9,0.7,1.6,1.6,1.6c0.9,0,1.6-0.7,1.6-1.6
	C302.2,70.6,301.5,69.9,300.6,69.9L300.6,69.9z"/>
<path class="st4" d="M16.3,107.6c-2,0-3.7-1.6-3.7-3.7c0-2,1.6-3.7,3.7-3.7c2,0,3.7,1.6,3.7,3.7c0,0,0,0,0,0
	C19.9,106,18.3,107.6,16.3,107.6z M16.3,102.4c-0.9,0-1.6,0.7-1.6,1.6c0,0.9,0.7,1.6,1.6,1.6s1.6-0.7,1.6-1.6S17.1,102.4,16.3,102.4
	L16.3,102.4z"/>
<path class="st4" d="M121.6,20.5c-1.9,0-3.5-1.5-3.5-3.4c0-1.9,1.5-3.5,3.4-3.5s3.5,1.5,3.5,3.4c0,0,0,0,0,0
	C125,18.9,123.5,20.5,121.6,20.5z M121.6,15.6c-0.8,0-1.4,0.6-1.4,1.4c0,0.8,0.6,1.4,1.4,1.4c0.8,0,1.4-0.6,1.4-1.4
	C123,16.3,122.4,15.6,121.6,15.6C121.6,15.6,121.6,15.6,121.6,15.6z"/>
<path class="st3" d="M20.1,69.6c-1.9,0-3.4-1.5-3.4-3.5c0-1.9,1.5-3.5,3.5-3.4s3.4,1.5,3.4,3.5c0,0,0,0,0,0
	C23.5,68.1,22,69.6,20.1,69.6z M20.1,64.8c-0.8,0-1.4,0.6-1.4,1.4c0,0.8,0.6,1.4,1.4,1.4c0.8,0,1.4-0.6,1.4-1.4l0,0
	C21.5,65.4,20.8,64.8,20.1,64.8z"/>
<path class="st2" d="M302,164.9c-0.6,0-1-0.4-1-1v-11.2c0-0.6,0.5-1,1-1s1,0.5,1,1v11.2C303.1,164.5,302.7,164.9,302,164.9
	C302.1,164.9,302.1,164.9,302,164.9z"/>
<path class="st2" d="M307.6,159.4h-11.2c-0.6,0-1-0.5-1-1s0.5-1,1-1h11.2c0.6,0,1,0.5,1,1S308.2,159.4,307.6,159.4z"/>
<g class="st5">
	<path class="st1" d="M232.4,13.2c-0.6,0-1-0.4-1-1V1c0-0.6,0.5-1,1-1s1,0.5,1,1v11.1C233.5,12.7,233.1,13.2,232.4,13.2
		C232.5,13.2,232.4,13.2,232.4,13.2z"/>
	<path class="st1" d="M238,7.6h-11.2c-0.6,0-1-0.5-1-1c0-0.6,0.5-1,1-1H238c0.6,0,1,0.5,1,1C239,7.2,238.6,7.6,238,7.6z"/>
</g>
<path class="st6" d="M270.1,57.4c-1.8,0-3.2-1.4-3.2-3.2s1.4-3.2,3.2-3.2s3.2,1.4,3.2,3.2C273.3,56,271.8,57.4,270.1,57.4z
	 M270.1,53.1c-0.6,0-1.1,0.5-1.1,1.1c0,0.6,0.5,1.2,1.1,1.2c0.6,0,1.1-0.5,1.1-1.1c0,0,0,0,0,0C271.2,53.6,270.7,53.1,270.1,53.1
	C270.1,53,270.1,53,270.1,53.1L270.1,53.1z"/>
<ellipse transform="matrix(1 -1.920056e-03 1.920056e-03 1 -0.2881 0.3139)" class="st7" cx="163.3" cy="150.2" rx="83.9" ry="88.8"/>
<circle class="st8" cx="162.1" cy="146.8" r="92.2"/>
<path class="st9" d="M223.6,204.4c0.1-3.5,0.8-10.1,0.4-13.4c-18.8,14.2-42.8,19.6-65.9,14.7c-0.9,3-2.1,6.1-3.8,7.4
	c-3.5,2.7-9.7,2.4-10.3,6.3s4.9,14.2,4.9,16.8s-12.3-5.1-14.6-11.6c-1.8-5.2-1.8-21.7-2.6-29.5c-17.9-11.2-30.7-28.9-35.8-49.3
	c-1.3,0.1-2.6-0.3-3.5-1.3c-2.3-2.9-4.6-14.9-5.2-17.8s-1.6-6.5-3.2-5.8s-2.9,4.9-4.2,4.5c-1-0.3-3.4-6-4.6-9.7
	c-17.1,47.9,7.8,100.7,55.8,117.9c34,12.2,72,3.3,97.2-22.6C225.7,209.4,223.5,207.2,223.6,204.4z"/>
<path class="st10" d="M111.2,150.2c2.3,1.3,2.9,9.2,4.9,9.1c1.1-0.3,2-0.8,2.8-1.6c0.6-2-0.4-2.3-2.5-3.8c-1.3-1-3.8-3.4-6.3-5.6
	C110.2,149.1,110.6,149.8,111.2,150.2z"/>
<path class="st10" d="M213.3,115.2c-1.7,1.2-3.5,2.1-5.4,2.8c1.7-0.1,3.4,0,5.1,0.4c6.1,1.6,7.8,4.8,10.5,4.2c2.2-0.5,5.4-2.6,9.3-3
	c-3.8-1.3-5.4-4.2-7.9-5.1C221.4,113.3,216.5,112.7,213.3,115.2z"/>
<path class="st11" d="M102.1,76.8c1.8-1.6,3.7-3,5.6-4.4C105.7,73.8,103.9,75.3,102.1,76.8z"/>
<path class="st11" d="M254.3,146.6c0-0.8,0-1.6,0-2.5l0,0C254.3,145,254.3,145.8,254.3,146.6z"/>
<path class="st11" d="M107.9,72.2c0.8-0.6,1.7-1.2,2.5-1.8C109.5,71.1,108.7,71.6,107.9,72.2z"/>
<path class="st11" d="M81.4,102.2c1.2-2.1,2.4-4.2,3.7-6.2C83.8,98.1,82.5,100.1,81.4,102.2z"/>
<polygon class="st12" points="75.2,115.8 75.2,115.8 75.2,115.8 "/>
<path class="st12" d="M110.8,70.2l-0.4,0.3L110.8,70.2L110.8,70.2z"/>
<polygon class="st12" points="228.2,211 228.2,211 228.2,211 "/>
<path class="st11" d="M254.2,144.2L254.2,144.2c0-0.2,0-0.3,0-0.5C254.2,143.8,254.2,144.1,254.2,144.2z"/>
<path class="st11" d="M219.8,74.9c2.9,2.3,5.7,4.9,8.3,7.5C225.5,79.8,222.7,77.3,219.8,74.9z"/>
<polygon class="st11" points="219.8,74.9 219.8,74.9 219.8,74.9 "/>
<path class="st11" d="M245.8,108.1c0.4,0.8,0.7,1.6,1.1,2.4l0,0C246.5,109.7,246.1,108.9,245.8,108.1z"/>
<path class="st13" d="M253.7,143.6c-4.2,18.7-15,35.3-30.3,46.9c0.4,3.3-0.3,9.9-0.4,13.4c-0.1,2.8,2.1,5,4.6,6.6l0,0
	c0.5-0.5,1-1,1.5-1.6l0,0c0.5-0.5,1-1.1,1.4-1.6l0,0l1.4-1.6l0,0c0.5-0.6,0.9-1.1,1.4-1.6V204c0.4-0.6,0.9-1.1,1.3-1.7l0.1-0.1
	c0.4-0.6,0.8-1.1,1.2-1.7l0.1-0.1c0.4-0.6,0.8-1.1,1.2-1.7l0.1-0.1c0.4-0.6,0.8-1.1,1.1-1.7l0.1-0.1l1.1-1.7l0.1-0.2
	c0.4-0.6,0.7-1.1,1-1.7l0.1-0.2c0.3-0.6,0.6-1.1,1-1.7l0.1-0.3c0.3-0.6,0.6-1.1,0.9-1.6c0.1-0.1,0.1-0.2,0.2-0.3
	c0.3-0.6,0.6-1.1,0.9-1.6l0.2-0.3c0.3-0.5,0.5-1.1,0.8-1.6l0.2-0.4c0.3-0.5,0.5-1.1,0.7-1.6c0.1-0.1,0.1-0.3,0.2-0.4
	c0.2-0.5,0.5-1,0.7-1.6l0.2-0.5c0.2-0.5,0.4-1,0.6-1.6l0.2-0.5l0.6-1.5c0.1-0.2,0.1-0.4,0.2-0.6c0.2-0.5,0.4-1,0.5-1.5l0.2-0.6
	c0.2-0.5,0.3-1,0.5-1.5l0.2-0.7l0.4-1.4c0.1-0.3,0.1-0.5,0.2-0.8c0.1-0.5,0.3-1,0.4-1.4c0.1-0.3,0.1-0.5,0.2-0.8
	c0.1-0.5,0.2-0.9,0.3-1.4c0.1-0.3,0.1-0.6,0.2-0.9s0.2-0.9,0.3-1.3s0.1-0.6,0.2-0.9s0.2-0.9,0.2-1.3s0.1-0.7,0.2-1s0.1-0.8,0.2-1.2
	l0.1-1.1c0-0.4,0.1-0.8,0.2-1.2s0.1-0.8,0.1-1.2s0.1-0.8,0.1-1.1s0.1-0.9,0.1-1.3s0.1-0.7,0.1-1s0.1-0.9,0.1-1.4l0.1-0.9l0.1-1.6
	c0-0.2,0-0.5,0-0.7c0-0.8,0-1.6,0-2.4l0,0C253.7,145.2,253.7,144.4,253.7,143.6z"/>
<path class="st11" d="M228.1,82.5c1.9,2,3.8,4.1,5.5,6.2C231.9,86.5,230.1,84.5,228.1,82.5z"/>
<path class="st14" d="M131.9,52.6c27.6-9.5,58-5.9,82.7,9.7"/>
<path class="st14" d="M76,97.9c2.1-3.7,4.5-7.3,7.1-10.7"/>
<path class="st14" d="M66.6,173.1c-2.3-8.5-3.5-17.3-3.5-26.1"/>
<path class="st14" d="M261.1,146.6c0,12.6-2.3,25.2-7,36.9"/>
<circle class="st15" cx="162.1" cy="146.8" r="92.2"/>
<path class="st1" d="M79.8,125.5c1.3,0.3,2.6-3.9,4.2-4.5s2.6,2.9,3.2,5.8s2.9,14.9,5.2,17.8s9,0,11.6,0s9.7,7.5,12.3,9.4
	c3,2.2,3.9,1.9,0.7,7.5s-1.9,12.2-0.3,18s12.6,9,14.2,11.9s1,26.8,3.3,33.3s14.6,14.2,14.6,11.6s-5.5-12.9-4.9-16.8
	s6.8-3.6,10.3-6.3s4.8-12.5,5.9-15.1s5-1,7.6-3.6s6.1-13.9,7.7-23s-9.7-8.1-15.1-10.2s-5-1.7-9.2-7.5s-11.9-2-13.9-1.3
	s-6.5-4.2-8.4-4s-6.4,5.3-8.4,5.4s-2.6-7.8-4.9-9.1s-0.7-8.1-3.3-10.3s-9.7,3.3-11.9,1s4.8-8.4,9.4-9.7s9.7,4.2,12,2.9
	s3.6-5.2,5.2-9.4s10-10.7,12.6-13.6s6.5,0.3,9.4,1.6s9.7-2.6,11.1-5.5s-2.8-11.6-7.6-13.6c-4.9-1.9-15.2,4.9-18.1,5.2
	c-2.9,0.3-3.3-7.8-1-10.5s14.9-0.8,20.4-2.3s6.8-1.5,6.3-4.7s-7.9-5.5-11.5-5.9s-13.6,4.3-17.4,3.7s-8.7-2.9-12.9-2.5
	c-2.4,0.2-4.8-0.7-7.4-1c-16.4,11-28.9,27-35.5,45.6C76.4,119.5,78.8,125.3,79.8,125.5z"/>
<path class="st1" d="M209.9,89.6c-2.3,1.4-6.1-0.8-9,0c-2.9,0.8-5.8,5-3.9,7.6c1.9,2.6,7.4,2.9,7.4,5.2s-7.4,3.2-8,4.9
	s-3.2,6.5,0,7.4s12.2-2.1,15.4-4.6s8.1-1.9,11.6-0.6s5.5,7.1,14.9,5.3c3.1-0.6,6-2.1,8.4-4.3c-6-13.9-15.2-26.1-27-35.6
	C219.9,74.9,212.2,88.1,209.9,89.6z"/>
<path class="st1" d="M249.7,121.2c-3.1-0.3-11.1-1-15.1-1.5c-5.2-0.6-9.4,2.3-12.1,2.9s-4.4-2.6-10.5-4.2s-13.6,1-18,4.2
	s-10,12.9-10,19.7s8.1,9.4,15.5,11.3s10.7-1.4,14.9,0s3.6,18,2.3,23.2s4.9,10.7,6,12.6s0.2,10.7,0,14.9c-0.1,2.8,2.2,5,4.6,6.6
	C250.3,187.3,258.9,153,249.7,121.2z"/>
<path class="st16" d="M196.3,85.6c0.7,1.6,3,0.8,4.2,0c1.2-0.8,3.2-2.8,2.6-3.8s-3.2-1.6-4.4-1C197.4,81.3,195.5,83.8,196.3,85.6z"
	/>
<line class="st15" x1="61.9" y1="239.6" x2="258.3" y2="239.6"/>
</svg>
